<svg xmlns="http://www.w3.org/2000/svg" xmlns:xlink="http://www.w3.org/1999/xlink" width="273.373" height="163.985" viewBox="0 0 273.373 163.985">
  <defs>
    <clipPath id="clip-path">
      <rect id="Rectangle_23" data-name="Rectangle 23" width="273.373" height="163.985" fill="#fff"/>
    </clipPath>
    <clipPath id="clip-path-2">
      <rect id="Rectangle_22" data-name="Rectangle 22" width="273.212" height="163.269" fill="#fff"/>
    </clipPath>
  </defs>
  <g id="Group_234" data-name="Group 234" transform="translate(0 0)" opacity="0.456">
    <g id="Group_19" data-name="Group 19" transform="translate(0 0)" clip-path="url(#clip-path)">
      <g id="Group_18" data-name="Group 18" transform="translate(0.161 0.161)">
        <g id="Group_17" data-name="Group 17" clip-path="url(#clip-path-2)">
          <g id="Group_16" data-name="Group 16">
            <g id="Group_15" data-name="Group 15" clip-path="url(#clip-path-2)">
              <path id="Path_1" data-name="Path 1" d="M.48,48.37c.062-.169.138-.334.185-.506A12.58,12.58,0,0,1,3.678,42.7a39.991,39.991,0,0,1,4.963-4.331c.274-.215.548-.431.816-.654a3.994,3.994,0,0,0,1.431-4.524c-.382-1.285-.8-2.56-1.141-3.855a8.713,8.713,0,0,1-.252-4.055,3.775,3.775,0,0,1,1.56-2.452,11.973,11.973,0,0,1,4.747-2.09,5.313,5.313,0,0,1,3.492.6,9.265,9.265,0,0,1,2.918,2.607c1.1,1.423,2.184,2.854,3.3,4.261a2.355,2.355,0,0,1-.827,3.554c-1.07.5-2.152.971-3.21,1.492A12.96,12.96,0,0,0,18,35.567a8.893,8.893,0,0,0-1.387,1.743c-.535.9-.959,1.86-1.424,2.8a5.292,5.292,0,0,0-.283.666c-.211.629-.152.885.442,1.195A17.566,17.566,0,0,0,17.7,43.018a30.566,30.566,0,0,0,8.895,1.667c2.117.079,4.238.074,6.353.179,2.192.11,4.381.277,6.567.474a101.775,101.775,0,0,1,14.214,2.071c.756.178,1.5.413,2.237.657a3.044,3.044,0,0,1,2.119,2.141,15.281,15.281,0,0,1,.562,2.9,34.084,34.084,0,0,1-.666,8.47,5.172,5.172,0,0,0,.1,2.063c.5,2.359,1.044,4.708,1.577,7.06a4.061,4.061,0,0,0,.2.53c1.066-.891,2.123-1.751,3.145-2.652a1.107,1.107,0,0,0,.225-.714c.057-1.1.06-2.2.123-3.293a9.551,9.551,0,0,1,.867-3.412,3.844,3.844,0,0,1,2.8-2.434,5.01,5.01,0,0,1,3.848.772,4.518,4.518,0,0,1,1.179,1.075c.688.989,1.327,2.017,1.914,3.069,1.077,1.927.058,3.773-1.164,4.9-.45.415-.976.748-1.52,1.159C72.59,71.647,74.2,73.41,74.9,75.8c1.113.261,2.25.566,3.4.792,3.917.769,7.839,1.507,11.758,2.264a45.5,45.5,0,0,1,7.31,1.892,1.727,1.727,0,0,0,.307.043,3.9,3.9,0,0,0,0-.534c-.243-1.7-.551-3.384-.721-5.087a8.96,8.96,0,0,0-.819-2.832,67.414,67.414,0,0,1-3.271-8.475,27.278,27.278,0,0,1-1.152-7.2c-.039-1.8-.111-3.591-.157-5.387-.06-2.36-.085-4.72-.173-7.079-.041-1.094-.174-2.187-.306-3.275a3.4,3.4,0,0,0-1.311-2.057A20.212,20.212,0,0,1,88.1,37.248a1.978,1.978,0,0,1,.384-3.282q1.619-1.124,3.324-2.122a8.049,8.049,0,0,1,4.257-1.187c-.036-.348-.092-.657-.1-.967a14.675,14.675,0,0,1,.612-4.923,10.118,10.118,0,0,1,3.906-5.278,5.963,5.963,0,0,1,4.831-.919,12.9,12.9,0,0,1,8.011,5.13,2.523,2.523,0,0,1,.486,1.493,13.052,13.052,0,0,1-.443,3.662,3.575,3.575,0,0,0,.488-.133c4.506-2.046,9.248-3.437,13.915-5.035,3.4-1.164,6.8-2.319,10.177-3.55a20.975,20.975,0,0,0,3-1.524,1.944,1.944,0,0,0,.979-1.888,6.194,6.194,0,0,0-1.279-3.818c-.7-.916-1.425-1.814-2.138-2.721-.067-.084-.127-.173-.193-.257a7.015,7.015,0,0,1-1.236-6.894c.279-.862.621-1.7.934-2.554h.322a3.025,3.025,0,0,0,2.309,1.273c1.216.189,2.45.276,3.656.515a11.464,11.464,0,0,1,2.516.8,4.176,4.176,0,0,1,2.456,3.45,8.024,8.024,0,0,1-.483,4.193c-.391.941-.8,1.877-1.272,2.779a2.1,2.1,0,0,0,.175,2.478,16.648,16.648,0,0,0,1.63,1.881,2.761,2.761,0,0,1,.809,3.137,40.345,40.345,0,0,1-1.593,4.206,16.072,16.072,0,0,0-1.352,5.427c-.3,3.145-.617,6.286-1.228,9.392a44.624,44.624,0,0,1-5.4,14.308c-.054.091-.1.186-.152.281a.359.359,0,0,0-.007.109c.721.305,1.469.581,2.18.931a2.643,2.643,0,0,1,1.327,4,8.468,8.468,0,0,1-1.327,1.907,8.044,8.044,0,0,0-1.916,3.483,56.034,56.034,0,0,0-1.873,9.858c-.132,1.52-.221,3.043-.318,4.566-.024.365,0,.733,0,1.191.709-.315,1.3-.634,1.924-.844,1.371-.46,2.757-.876,4.143-1.288a21.07,21.07,0,0,0,7.535-3.695,8.61,8.61,0,0,0,1.631-1.76c.656-.956.323-1.752-.777-2.125a11.942,11.942,0,0,0-4.149-.313c-1.093.019-2.187.042-3.28.024a2.7,2.7,0,0,1-2.81-2.729,8.016,8.016,0,0,1,4.584-8.227,4.6,4.6,0,0,1,4.871.406,12.8,12.8,0,0,1,5.285,7.811c.14.651.16,1.328.249,1.991a2.091,2.091,0,0,0,1.319,1.857,2.46,2.46,0,0,1,1.674,3.126c-.489,2.47-1.014,4.935-1.593,7.386q-3.078,13.031-6.2,26.052c-.048.2-.062.414-.1.684a34.269,34.269,0,0,0,6.042.058,20.137,20.137,0,0,0,5.458-1.288c.372-.147.721-.353,1.08-.533a2.37,2.37,0,0,0,1.277-1.7,12.718,12.718,0,0,1,3.74-6.359,4.67,4.67,0,0,1,2.373-1.118,3.529,3.529,0,0,1,4.074,2.147,28.453,28.453,0,0,1,1.909,6.048,4.365,4.365,0,0,1,0,1.36,2.689,2.689,0,0,1-2.026,2.169,9.527,9.527,0,0,0-1.416.564,1.161,1.161,0,0,0-.63,1.552,5.1,5.1,0,0,0,.4.876,23.393,23.393,0,0,0,3.846,5.138c2.293,2.413,4.6,4.812,6.893,7.223.553.581,1.081,1.186,1.68,1.847.493-.589.931-1.158,1.416-1.683a37.288,37.288,0,0,0,5.633-8.678c1.847-3.639,3.733-7.258,5.531-10.92q3.832-7.8,7.551-15.663c1.161-2.446,2.284-4.915,3.3-7.425a26.185,26.185,0,0,0,1.928-8.1,10.358,10.358,0,0,0-.832-5.266c-.417-.866-.993-1.654-1.462-2.5a7.589,7.589,0,0,1-1.073-3.661,4.565,4.565,0,0,1,1.788-3.7,6.473,6.473,0,0,1,3.257-1.483c1.483-.208,2.974-.367,4.463-.524s2.981-.3,4.474-.42c1.282-.1,2.567-.207,3.851-.219,2.256-.022,4.512.017,6.769.048.6.008,1.2.079,1.8.121l.067-.166c-.229-.209-.457-.421-.688-.628a1.252,1.252,0,0,1-.184-1.85,2.907,2.907,0,0,1,.692-.67,35.658,35.658,0,0,1,7.739-4.076,13.967,13.967,0,0,1,5.556-.672,6.839,6.839,0,0,1,6.171,5.293,12.845,12.845,0,0,1,.115,5.427,22.26,22.26,0,0,1-1.453,5.011,1.278,1.278,0,0,0,.075,1.2c1.275,2.483,2.563,4.962,3.778,7.475,1.284,2.656,2.506,5.343,3.729,8.028a13.915,13.915,0,0,1,1.3,5.6,7.346,7.346,0,0,1-1.111,4.3,5.249,5.249,0,0,1-3.872,2.334,12.182,12.182,0,0,1-2.632.021,13.662,13.662,0,0,0-10.1,2.922c-2.522,2-5.013,4.04-7.4,6.194a40.821,40.821,0,0,0-6.327,7.8c-2.841,4.24-5.359,8.675-7.875,13.11-1.894,3.337-3.79,6.672-5.641,10.033q-2.912,5.287-5.739,10.622c-2.778,5.239-5.522,10.5-8.276,15.749-.386.736-.751,1.482-1.134,2.242H168.287c.24-.651.448-1.251.681-1.842,2.169-5.517,4.338-11.036,6.972-16.353.785-1.584,1.729-3.088,2.648-4.714a2.685,2.685,0,0,0-.842.734,44.346,44.346,0,0,0-5.272,7.079c-3.048,4.963-6.307,9.8-9.452,14.7a.992.992,0,0,1-1.023.434q-8.021,0-16.043,0H132.729l-.226,1.491-.1.024c-.053-.225-.112-.448-.158-.674-.052-.257-.092-.515-.15-.841h-.843c-1.263,0-2.527-.011-3.789.007-.369.005-.736.1-1.106.137a5.637,5.637,0,0,1-.862.017c-.639-.042-1.277-.153-1.914-.154q-19.308-.014-38.617-.007a5.35,5.35,0,0,0-.564,0,.79.79,0,0,1-.842-.459c-1.505-2.539-3-5.083-4.556-7.594-2.4-3.881-4.837-7.738-7.26-11.6q-.513-.819-1.044-1.627a.506.506,0,0,0-.375-.221c.037.328.089.654.109.983.078,1.284.141,2.568.217,3.852.089,1.5.222,2.991.274,4.489.08,2.33.181,4.663.133,6.993a16.576,16.576,0,0,1-.829,5.056c-.56.157-23.053.211-24.254.042.044-1.472.088-2.96.138-4.647-.363.29-.616.461-.832.669-1.158,1.12-2.314,2.243-3.456,3.38a2.213,2.213,0,0,1-1.7.7q-16.85-.04-33.7-.018H5.4c.793-.877,1.433-1.656,2.146-2.361a28.168,28.168,0,0,0,5.988-9.362,86.262,86.262,0,0,0,2.93-8.6,15.442,15.442,0,0,1,3.281-6.115,10.754,10.754,0,0,1,6.057-3.41,14.621,14.621,0,0,1,2.789-.286c2.629.009,5.26.035,7.885.162,2.86.139,5.713.4,8.569.607.42.03.84.054,1.331.086-.028-.452-.068-.869-.075-1.285-.025-1.558.013-3.118-.069-4.672-.157-2.967-.386-5.93-.574-8.895-.219-3.449-.635-6.877-1.148-10.292-.223-1.482-.508-2.956-.8-4.428a2.125,2.125,0,0,0-.42-.926c-1.982-2.362-3.921-4.765-6-7.042A230.145,230.145,0,0,1,22.236,77.5a141.163,141.163,0,0,1-11.1-17.443C10.3,58.5,9.42,56.96,8.579,55.4a4.528,4.528,0,0,0-2.256-2.081c-1.034-.447-2.066-.9-3.064-1.423a11.189,11.189,0,0,1-1.58-1.092A3.134,3.134,0,0,1,.63,49.04a2.632,2.632,0,0,0-.15-.348V48.37m138.777,80.76c-.079-1.137-.166-2.3-.239-3.471-.081-1.31-.127-2.623-.226-3.932-.179-2.374-.4-4.746-.578-7.12q-.282-3.724-.52-7.451c-.167-2.541-.349-5.082-.293-7.632.045-2.065.07-4.131.11-6.2q.074-3.782.162-7.563c.042-1.715.087-3.431.164-5.145.086-1.926.171-3.853.325-5.775a54.092,54.092,0,0,1,1.816-9.785,8.574,8.574,0,0,1,2.083-3.934,9.421,9.421,0,0,0,1.106-1.478,3.7,3.7,0,0,0,.419-.951c.269-.888.143-1.134-.7-1.483a24.411,24.411,0,0,0-5.1-1.423c-2.582-.461-5.172-.9-7.772-1.235-2.786-.362-5.585-.635-8.384-.879a32.067,32.067,0,0,1-6.234-1.119,48.34,48.34,0,0,1-8.977-3.73A44.677,44.677,0,0,1,99.64,44.5a12.181,12.181,0,0,1-3.075-3.259,5.34,5.34,0,0,1-.2-5.577c.478-.9,1.081-1.725,1.645-2.573a5.99,5.99,0,0,1,2.214-1.952,18.337,18.337,0,0,1,7.719-1.876c.006.639-.018.658-.684.7A18.685,18.685,0,0,0,102.149,31a6.8,6.8,0,0,0-3.337,2.156,24.275,24.275,0,0,0-1.88,2.9,4.554,4.554,0,0,0,.271,4.939,13.508,13.508,0,0,0,3.525,3.491,50.041,50.041,0,0,0,8.671,5.073,43.708,43.708,0,0,0,7.624,2.774,44.524,44.524,0,0,0,6.039.842c2.977.344,5.962.623,8.936.993a67.318,67.318,0,0,1,8.764,1.631c.2.051.395.093.592.139a1.2,1.2,0,0,0-.564-.327c-1.09-.277-2.183-.538-3.274-.809a5.819,5.819,0,0,1-1.453-.394c-2.641-1.488-5.236-3.057-7.884-4.532a66.876,66.876,0,0,0-8.216-3.885A132.579,132.579,0,0,0,105.3,41.436c-2.126-.557-4.269-1.049-6.4-1.584-.73-.183-.854-.326-.829-1.05a19.537,19.537,0,0,1,.194-2.4A2.843,2.843,0,0,1,99.941,34.1a6.379,6.379,0,0,1,3.224-.5,11.459,11.459,0,0,0,5.143-.586,6.688,6.688,0,0,0,4.644-5.3c.145-.812.137-1.651.213-2.477a1.513,1.513,0,0,0-.329-1.046,12.113,12.113,0,0,0-3.4-3.272,12.4,12.4,0,0,0-5.188-1.848,5.217,5.217,0,0,0-4.164,1.577c-2.828,2.536-3.685,5.8-3.4,9.462.035.447.044.9.069,1.43a4.8,4.8,0,0,0-3.568.374,24.138,24.138,0,0,0-4.4,2.67c-.931.69-.981,1.374-.174,2.22.574.6,1.191,1.162,1.788,1.741a3.7,3.7,0,0,1,1.318,2.237c.111,1.01.269,2.02.305,3.033.089,2.493.113,4.988.175,7.482.042,1.715.128,3.43.154,5.145a27.927,27.927,0,0,0,1.6,8.658c.981,2.873,2.187,5.652,3.448,8.408.431.942.878,1.876,1.317,2.814a.457.457,0,0,0,.012-.4c-1.184-3.336-2.306-6.7-3.57-10a37.068,37.068,0,0,1-2.254-12.431,60.678,60.678,0,0,1,.254-6.666,57.139,57.139,0,0,1,1.362-8.481,22.864,22.864,0,0,1,1.745-5.088,1.16,1.16,0,0,1,.184-.2l.433.289c-.28.719-.558,1.386-.8,2.065a39.622,39.622,0,0,0-1.5,5.834,60.232,60.232,0,0,0-1.024,9.976c-.031,1.258.021,2.521.106,3.777q.153,2.241.433,4.474a27.856,27.856,0,0,0,1.634,5.959c2.254,6.228,4.46,12.475,6.76,18.686.753,2.033,1.8,3.957,2.6,5.972,1.194,2.979,2.326,5.985,3.42,9a29.733,29.733,0,0,1,1.582,9.467c-.037,1.9-.03,3.809-.207,5.7-.207,2.21-.606,4.4-.9,6.6-.223,1.7-.435,3.4-.6,5.1-.11,1.172-.135,2.354-.166,3.532a1.063,1.063,0,0,0,.227.638c.333.414.715.789,1.06,1.161a17.024,17.024,0,0,1,5.7-1,7.649,7.649,0,0,0,.239-.815c.33-1.9.687-3.793.954-5.7a4.753,4.753,0,0,1,1.448-2.963,4.857,4.857,0,0,1,2.883-1.242,5.588,5.588,0,0,1,3.9.86,14.355,14.355,0,0,1,1.647,1.151c1.558,1.353,3.088,2.74,4.619,4.125a9.893,9.893,0,0,1,2.651,3.054l5.7.367M36.213,87.376a2.845,2.845,0,0,0,1.837.914,1.652,1.652,0,0,1,1.049.766,27.411,27.411,0,0,1,3.308,6.779A78.668,78.668,0,0,1,45.8,112.579c.209,1.834.367,3.676.5,5.517.216,2.963.418,5.928.577,8.894.078,1.447.037,2.9.07,4.35.012.553.081,1.1.127,1.7l9.515.831c.159-1.611.286-3.128.464-4.638.232-1.967.451-3.938.773-5.891.636-3.859,1.328-7.708,2.015-11.558.715-4.008,1.464-8.01,2.171-12.02.535-3.033,1.057-6.07,1.529-9.113.327-2.115.544-4.247.836-6.368a15.809,15.809,0,0,0-.083-4.724,4.361,4.361,0,0,0-1.743-2.972,4,4,0,0,1-.639-.611,3.505,3.505,0,0,1-.286-4.448c.022-.033.088-.037.171-.069l.381.324c-.149.363-.291.68-.409,1a2.433,2.433,0,0,0,.42,2.423,4.687,4.687,0,0,0,.824.875A4.619,4.619,0,0,1,64.853,79.1a20.412,20.412,0,0,1,.3,2.709,42.482,42.482,0,0,1-.722,7.51c-.664,4.233-1.419,8.452-2.165,12.671-.942,5.328-1.934,10.648-2.864,15.978-.506,2.9-.975,5.811-1.376,8.729-.316,2.3-.5,4.625-.745,6.94-.005.047.034.1.065.184l.654.167a4.5,4.5,0,0,0,.172-.629c.042-.346.028-.7.072-1.043.464-3.61.865-7.23,1.425-10.826q.8-5.159,1.887-10.273c.711-3.383,1.645-6.719,2.361-10.1.96-4.534,1.82-9.089,2.691-13.641.453-2.367.807-4.753,1.269-7.118a14.029,14.029,0,0,1,.813-2.6,2.184,2.184,0,0,1,2.045-1.419c.112.345.124.617-.285.706a1.769,1.769,0,0,0-1.3,1.306,20.852,20.852,0,0,0-.774,2.782c-.565,3.082-1.067,6.175-1.6,9.263q-1.371,7.885-3.334,15.644a166.123,166.123,0,0,0-3.483,17.9c-.324,2.333-.621,4.669-.906,7.006-.119.976-.175,1.959-.265,3,.774-.053,1.463-.077,2.146-.151a6.443,6.443,0,0,0,5.528-3.58,4.636,4.636,0,0,0,.1-4.653c-.267-.5-.557-.98-.8-1.488a15.584,15.584,0,0,1-1.288-5.447c-.046-.54-.081-1.08-.121-1.621a1.765,1.765,0,0,1,.54.815,1.96,1.96,0,0,0,1.51,1.4,7.21,7.21,0,0,1,2.949,1.593c.4.349.787.7,1.222,1.094.071-.293.134-.519.181-.748.446-2.178.818-4.375,1.35-6.532A49.855,49.855,0,0,1,78.039,100a30.045,30.045,0,0,1,4.975-6.1,13.893,13.893,0,0,1,5.09-3,12.258,12.258,0,0,0,1.189-.546,2.8,2.8,0,0,0-1.057-.558c-.929-.26-1.876-.458-2.8-.742a31.794,31.794,0,0,1-10.377-5.709,13.376,13.376,0,0,1-2.8-2.756,2.044,2.044,0,0,1,.432-3.106c.332-.271.7-.5,1.031-.772a.966.966,0,0,0,.368-1.273,3.4,3.4,0,0,0-.285-.664c-.525-.873-1.021-1.767-1.609-2.6-.993-1.4-2.005-2.791-3.085-4.125-1.375-1.7-2.327-1.764-4-.381-1.282,1.059-2.562,2.12-3.813,3.214a6.745,6.745,0,0,0-1.666,2.048,1.745,1.745,0,0,0,.209,2.017c.284.356.6.689.865,1.059a3.061,3.061,0,0,1-.186,4.179,9.819,9.819,0,0,1-3.431,2.477,23.925,23.925,0,0,1-5.7,1.662c-3.479.621-6.973,1.165-10.454,1.775-1.265.221-2.516.524-3.765.823a5.291,5.291,0,0,0-.954.447M6.29,52.37l-.061.146a3.734,3.734,0,0,0,.534.3,4.35,4.35,0,0,1,2.283,2.058c.752,1.331,1.514,2.657,2.228,4.009a138.781,138.781,0,0,0,8.288,13.7A193.926,193.926,0,0,0,35.9,92.879c2.267,2.5,4.452,5.082,6.675,7.626.17.195.346.385.519.577a24.277,24.277,0,0,0-.853-3.619,30.388,30.388,0,0,0-3.458-7.679,2.048,2.048,0,0,0-1.3-.974,4.691,4.691,0,0,1-1.4-.587c-.789-.5-.758-1.193.083-1.588a8.255,8.255,0,0,1,1.974-.662c2.553-.476,5.121-.876,7.677-1.339,2.608-.473,5.221-.937,7.81-1.5a12.806,12.806,0,0,0,5.063-2.187,6.138,6.138,0,0,0,1.817-1.9,1.825,1.825,0,0,0,.063-1.844,9.688,9.688,0,0,0-1.129-1.653,2.482,2.482,0,0,1-.365-2.974,1.529,1.529,0,0,0,.094-1.144q-.874-3.717-1.709-7.443a10.246,10.246,0,0,0-.636-2.4,15.789,15.789,0,0,0-3.573-4.824,9.925,9.925,0,0,0-6.927-2.775c-2.333.027-4.666.145-7,.146-3.7,0-7.41-.051-11.114-.1-1.689-.024-3.377-.1-5.065-.157-.59-.019-1.181-.02-1.77-.059-2.056-.135-4.114-.256-6.167-.432-1.973-.17-3.941-.391-5.909-.61-1.007-.112-2.01-.269-3.015-.406M251.528,92.961c-.2-.126-.263-.189-.332-.2-4-.756-8-1.542-12.005-2.246a23.384,23.384,0,0,0-6.307-.432,29.533,29.533,0,0,0-8.756,2.267,2.052,2.052,0,0,0-.822.72A116.068,116.068,0,0,0,216.469,105c-1.381,2.638-2.7,5.31-4.136,7.919-2.88,5.243-5.775,10.479-8.743,15.671q-9.185,16.07-18.452,32.094c-.152.264-.29.536-.445.823a1.533,1.533,0,0,0,.26.073q8.383.007,16.766.017a.727.727,0,0,0,.729-.486q2.478-4.79,4.981-9.566c2.174-4.131,4.322-8.276,6.561-12.372q4.457-8.155,9.04-16.242c2.556-4.535,5.143-9.054,8.069-13.366a40.706,40.706,0,0,1,6.344-7.677c2.376-2.125,4.864-4.13,7.373-6.1a13.523,13.523,0,0,1,6.711-2.831M169.246,161.52a2.929,2.929,0,0,0,.368.065c3.252,0,6.5-.007,9.755.017.473,0,.645-.248.852-.581q7.5-12.122,15-24.234,7.255-11.7,14.523-23.4c3.1-4.992,6.2-9.989,9.353-14.949,1.4-2.193,2.474-4.587,4.175-6.587a1.419,1.419,0,0,0,.152-.283,5.537,5.537,0,0,0,.444-3.445,15.013,15.013,0,0,0-2.044-5.3c-1-1.715-2.089-3.378-3.177-5.04-1.779-2.717-3.587-5.414-5.386-8.117a4.462,4.462,0,0,0-.337-.4.559.559,0,0,0-.008.413,12.766,12.766,0,0,1,.508,5.726,30.822,30.822,0,0,1-2.42,8.811c-1.088,2.538-2.255,5.044-3.447,7.536-2.444,5.107-4.892,10.214-7.407,15.287-2.014,4.064-4.11,8.087-6.208,12.109a25.631,25.631,0,0,1-3.739,5.609c-.793.862-1.482,1.819-2.235,2.754.208.255.395.448.539.669a10.637,10.637,0,0,1,.961,1.569,1.419,1.419,0,0,1-.951,2.1,3.423,3.423,0,0,1-1.1.221,3.619,3.619,0,0,0-2.749,1.257,3.125,3.125,0,0,1-.247.2,18.758,18.758,0,0,0-4.362,4.8c-.193.352-.439.675-.64,1.024-1.2,2.094-2.564,4.115-3.557,6.3-1.995,4.394-3.791,8.879-5.658,13.33-.34.81-.629,1.642-.966,2.531m-162.335.071h29.2c1.37,0,2.74-.007,4.111,0a1.2,1.2,0,0,0,.935-.342c2.171-2.118,4.363-4.214,6.544-6.321,1.833-1.772,3.675-3.536,5.487-5.331q4.234-4.195,8.426-8.432A12.5,12.5,0,0,0,64,138.046a2.355,2.355,0,0,1,1.914-1.4c.213-.028.426-.054.635-.1a19.741,19.741,0,0,0,1.944-.484,1.422,1.422,0,0,0,1.034-1.541,7.516,7.516,0,0,0-.5-2.371,1.847,1.847,0,0,0-.184.591,3.217,3.217,0,0,1-2.941,2.846,10.423,10.423,0,0,1-2.474.065c-1.7-.181-3.418-.226-5.127-.346q-3.4-.238-6.806-.507c-2.4-.194-4.8-.416-7.2-.617-1.627-.137-3.256-.258-4.883-.39a1.087,1.087,0,0,1-.234-.08c-.009-.214-.018-.416-.029-.642-1.21-.062-2.384-.132-3.559-.18q-1.327-.054-2.657-.06c-1.927-.007-3.863-.125-5.778.03a10.326,10.326,0,0,0-8.22,5.1,22.952,22.952,0,0,0-2.362,5.876,55.609,55.609,0,0,1-4.031,10.325,23.224,23.224,0,0,1-3.619,5.2c-.642.675-1.253,1.38-2.016,2.224M138.283,1.511c-.207.649-.385,1.231-.578,1.808a6.048,6.048,0,0,0,.975,5.924c.7.915,1.4,1.835,2.123,2.731a7.449,7.449,0,0,1,1.793,4.633,2.794,2.794,0,0,1-1.143,2.5,14.666,14.666,0,0,1-4.108,2q-6.88,2.381-13.788,4.679c-3.36,1.121-6.69,2.314-9.925,3.762a2.049,2.049,0,0,0-.993.872,6.784,6.784,0,0,1-1.219,1.478,9.109,9.109,0,0,1-5.45,2.323,2.443,2.443,0,0,0-1.1.41,23.172,23.172,0,0,0-3.858,3.4,3.548,3.548,0,0,0-1.006,1.394c2.253.569,4.467,1.106,6.669,1.69,4.2,1.114,8.372,2.32,12.445,3.843A90.567,90.567,0,0,1,135.3,53.2a13.645,13.645,0,0,0,4.287,1.337,2.329,2.329,0,0,0,.2-.229,42.809,42.809,0,0,0,4.344-9.663A64.646,64.646,0,0,0,146.437,31.7c.127-1.3.285-2.608.5-3.9a21.5,21.5,0,0,1,1.528-4.054c.4-1.051.786-2.11,1.109-3.186a1.758,1.758,0,0,0-.557-2.038,4.017,4.017,0,0,1-.682-.684,23.525,23.525,0,0,1-1.5-2.072,2.245,2.245,0,0,1-.061-2.169q.333-.733.685-1.456A9.657,9.657,0,0,0,148.7,7.124a3.985,3.985,0,0,0-2.567-3.664,15.2,15.2,0,0,0-4.233-.885,6.824,6.824,0,0,1-3.614-1.065m-6.1,157.073.261,0c-.118-1.976-.2-3.956-.362-5.928a48.454,48.454,0,0,0-2.43-11.533c-.571-1.7-1.225-3.377-1.826-5.069a5.665,5.665,0,0,1,.037-4.309,4.5,4.5,0,0,1,2.079-2.3l.319.477c-.158.136-.275.243-.4.343a4.307,4.307,0,0,0-1.7,4.323,10.753,10.753,0,0,0,.587,2.08,62.173,62.173,0,0,1,2.87,9.035,51.639,51.639,0,0,1,1.363,11.543c0,1.431-.109,2.861-.169,4.306h3.293c1.227-2.873,2.471-5.723,3.664-8.593,1.07-2.575,2.031-5.2,3.139-7.754.875-2.02,1.847-4.01,3.834-5.243a1.307,1.307,0,0,0,.606-.777c-.206.091-.3.125-.394.177A7.858,7.858,0,0,1,142.8,140.4a18.124,18.124,0,0,1-7.134-1.733,8.025,8.025,0,0,1-2.836-1.943,4.079,4.079,0,0,1-1.122-4.269,14.459,14.459,0,0,1,.8-2.268,1.81,1.81,0,0,0-.489-2.484c-.1-.091-.187-.193-.286-.284-1.59-1.48-3.157-2.986-4.78-4.43a14.477,14.477,0,0,0-3.559-2.468,4.782,4.782,0,0,0-3.832-.019,3.94,3.94,0,0,0-2.532,3.443c-.2,1.726-.492,3.445-.815,5.153-.224,1.182-.619,2.333-.845,3.515a6.1,6.1,0,0,0-.107,2.863.941.941,0,0,0,.305.519,8.425,8.425,0,0,0,3.981,1.587c1.915.127,2.515,1.131,2.448,2.821a13.864,13.864,0,0,1-1.759,6.213,10.906,10.906,0,0,1-6.346,5.485,24.21,24.21,0,0,1-9.751,1.108c-.306-.03-.617,0-.975,0a21.871,21.871,0,0,0,.894,2.73c.853,1.79,1.823,3.524,2.722,5.293.212.417.551.359.892.359q11.808,0,23.616,0c.225,0,.45-.033.774-.059-.687-3.446-1.327-6.814-2.036-10.168a64.11,64.11,0,0,0-2.471-8.9,10.923,10.923,0,0,0-4.834-5.915,12.9,12.9,0,0,0-3.736-1.446c-.495-.109-.492-.12-.289-.768.791.23,1.6.409,2.375.7a11.143,11.143,0,0,1,6.49,5.8,30.063,30.063,0,0,1,1.427,3.841,106.213,106.213,0,0,1,2.773,11.894c.125.676.275,1.348.413,2.022m18.1,2.967c.242.021.348.038.454.038,3.681,0,7.362,0,11.043.01a.888.888,0,0,0,.841-.466c1.191-1.819,2.438-3.6,3.608-5.434,2.252-3.529,4.456-7.088,6.7-10.623a30.155,30.155,0,0,1,1.79-2.573,74.863,74.863,0,0,1,7.128-7.538c1.026-.981,2.135-1.874,3.188-2.827a2.344,2.344,0,0,1,1.525-.609,7.364,7.364,0,0,0,1.73-.318c.682-.21.848-.588.548-1.235a6.192,6.192,0,0,0-.853-1.353c-.807-.967-1.636-1.918-2.5-2.833-2.322-2.458-4.672-4.889-7-7.339a24.436,24.436,0,0,1-3.716-4.838,6.984,6.984,0,0,1-.7-1.443,1.794,1.794,0,0,1,.872-2.4c.209-.118.436-.2.652-.31.142-.071.276-.156.415-.234-2.081.027-3.818.52-4.893,2.561q-2.328,4.419-4.328,8.986c-2.453,5.632-4.8,11.309-6.768,17.131-2.293,6.8-5.112,13.373-8.046,19.906-.547,1.218-1.1,2.434-1.688,3.74m-4.763-29.456c.2-.958.4-1.865.581-2.777,1.112-5.761,2.237-11.52,3.31-17.288.179-.964.671-1.979-.115-2.967l.623-.156a4.359,4.359,0,0,0,.155-.524q.429-2.495.845-4.992c.626-3.778,1.257-7.555,1.868-11.335q.691-4.283,1.335-8.572.728-4.8,1.42-9.614a8.6,8.6,0,0,0,.066-3.749c-.189-.633-.45-1.244-.719-1.974.029-.017.122-.075.22-.124.068-.034.143-.055.255-.1.141.234.289.455.412.687a6.774,6.774,0,0,1,.582,4.158c-.29,2.257-.622,4.509-.966,6.758q-1.014,6.63-2.065,13.254c-.553,3.464-1.138,6.923-1.714,10.383-.316,1.9-.64,3.794-.976,5.78l1.383.074c.069-.241.127-.418.169-.6.861-3.68,1.707-7.363,2.582-11.039,1.409-5.92,2.847-11.833,4.251-17.754.377-1.589.748-3.186.994-4.8.222-1.464-.193-2.154-1.282-2.493a2.537,2.537,0,0,1-1.7-2.335c-.087-.636-.1-1.286-.233-1.911a12.353,12.353,0,0,0-5.006-7.437,3.879,3.879,0,0,0-4.532-.212,7.28,7.28,0,0,0-3.929,7.276,2.126,2.126,0,0,0,1.5,2.164,7.312,7.312,0,0,0,1.907.212c1.446-.012,2.892-.126,4.338-.132a5.136,5.136,0,0,1,2.779.676,1.579,1.579,0,0,1,.8,1.4,3.167,3.167,0,0,1-1.035,2.28,16.556,16.556,0,0,1-6.447,3.993c-1.626.613-3.333,1.007-4.993,1.534a15.51,15.51,0,0,0-3.765,1.669c-.072,1.831-.159,3.6-.207,5.365q-.1,3.862-.161,7.725c-.026,1.988-.015,3.977.005,5.965a2.735,2.735,0,0,0,.227,1c.466,1.113,1.009,2.195,1.445,3.319a33.329,33.329,0,0,1,2.3,12.01q.018,4.187-.289,8.358c-.082,1.093-.214,2.184-.3,3.277-.035.449-.006.9-.006,1.286l4.079,2.279m99.1-67.621A41.352,41.352,0,0,1,237.2,57.91a1.03,1.03,0,0,0-.6-.31c-.879-.084-1.762-.153-2.645-.168-2.175-.037-4.351-.05-6.527-.056-.751,0-1.5.015-2.252.078-1.332.112-2.661.273-3.992.4-1.891.182-3.786.33-5.675.534a6.755,6.755,0,0,0-4.358,2.022,3.842,3.842,0,0,0-.5,4.522c3.748,4.879,7.066,10.055,10.382,15.23a27.569,27.569,0,0,1,2.836,5.407,9.589,9.589,0,0,1,.706,4.325c-.055.521-.174,1.035-.266,1.569,1.237-.4,2.425-.8,3.629-1.15a1.471,1.471,0,0,0,.91-.7q7.16-11.429,14.348-22.841c.469-.746.928-1.5,1.425-2.3m-147.138,77.9.148-.034c.028-.118.056-.236.083-.355a10.182,10.182,0,0,1,2.375-4.94,1.719,1.719,0,0,0,.455-1.65,6.964,6.964,0,0,1,.371-4.261,2.917,2.917,0,0,0,.134-2.237c-.052-.18-.089-.364-.135-.546-1.217-4.916-2.345-9.856-3.675-14.741a66.384,66.384,0,0,1-2.394-15.76,29.868,29.868,0,0,1,.145-3.611,5.707,5.707,0,0,0-1.369-4.469,19.576,19.576,0,0,0-5.757-4.576,43.962,43.962,0,0,0-13.724-4.384,5.715,5.715,0,0,0-.835-.005c.221.239.34.38.471.509a29.833,29.833,0,0,0,5.437,4.127,25.354,25.354,0,0,0,8.19,3.44,15.045,15.045,0,0,1,1.99.629.86.86,0,0,1,.659.741.9.9,0,0,1-.656.831c-.592.253-1.182.509-1.785.733a11.671,11.671,0,0,0-3.583,2.116,30.457,30.457,0,0,0-6.767,8.729.945.945,0,0,0,.076,1.1c2.417,3.836,4.869,7.651,7.193,11.542A125,125,0,0,1,92.1,130.119c1.617,3.769,3.266,7.524,4.9,11.284.143.329.317.646.477.968M74.022,110.463a4.905,4.905,0,0,0-.181.462c-.647,2.489-1.355,4.965-1.912,7.474a25.431,25.431,0,0,0-.851,6.031,1.857,1.857,0,0,1-.078.554,24.545,24.545,0,0,0-.65,5.811c-.119,2.439-.039,4.888-.093,7.331a2.891,2.891,0,0,0,.514,1.722c4.425,6.792,8.672,13.7,12.834,20.651l.629,1.05h12.56c-.12-.363-.2-.668-.321-.962-.336-.848-.65-1.706-1.033-2.532a15.791,15.791,0,0,0-3.606-5.286c-1.215-1.09-2.546-2.051-3.831-3.062-.548-.431-1.136-.814-1.662-1.27a1.852,1.852,0,0,1-.807-1.659,5.56,5.56,0,0,1,4.279-4.587c.731-.112,1.474-.147,2.3-.225a278.7,278.7,0,0,0-18.087-31.5m155.468-20.6,1.012-.12c1.115-.13,2.227-.3,3.346-.379a17.749,17.749,0,0,1,4.4.335c3.848.682,7.681,1.447,11.528,2.134,2.211.395,4.433.746,6.661,1.033a4.828,4.828,0,0,0,5.456-4.01,9.883,9.883,0,0,0-.426-5.6c-.859-2.25-1.821-4.467-2.857-6.643-1.661-3.487-3.418-6.928-5.138-10.388-.1-.211-.233-.41-.377-.66a11.886,11.886,0,0,1-7.875-.748L229.49,89.861M150.365,109.59c.058.3.079.49.132.668a17.458,17.458,0,0,1,.708,5.318c-.049,2.545-.117,5.092-.272,7.632-.142,2.323-.378,4.641-.634,6.955a85.936,85.936,0,0,1-2.575,13.242,58.8,58.8,0,0,1-7.775,17.587,5.32,5.32,0,0,0-.283.547h8.918c.212-.453.434-.855.595-1.28,1.974-5.217,3.972-10.425,5.9-15.66,1.851-5.034,3.574-10.114,5.63-15.073q2.82-6.8,5.523-13.649a51.738,51.738,0,0,0,1.7-5.28,3.686,3.686,0,0,0-.993-3.672,7.774,7.774,0,0,1-2.869,1.637,18.875,18.875,0,0,1-6.043,1.2c-1.447.048-2.9.016-4.346-.015-1.068-.023-2.134-.1-3.311-.162M15.155,52.724c1.2.1,2.375.224,3.549.289,2.3.127,4.6.245,6.9.323,2.439.083,4.88.157,7.319.158,3.677,0,7.354-.062,11.03-.1.134,0,.267-.028.4-.032a14.348,14.348,0,0,1,5.486.562,12.751,12.751,0,0,1,5.94,4.633c.563.765,1.04,1.592,1.6,2.465.063-.315.125-.547.153-.782.133-1.143.254-2.287.385-3.43a19.359,19.359,0,0,0-.046-4.8,3.829,3.829,0,0,0-3.054-3.651,77.283,77.283,0,0,0-8.522-1.6c-2.042-.271-4.091-.5-6.143-.676-2.719-.231-5.441-.43-8.166-.572-2.541-.132-5.091-.018-7.627-.33a31.8,31.8,0,0,1-7.495-1.749,13.135,13.135,0,0,1-2.02-.983A1.291,1.291,0,0,1,14.2,40.79a2.527,2.527,0,0,1,.189-.53c.62-1.249,1.238-2.5,1.88-3.739a3.865,3.865,0,0,1,.58-.766,17.312,17.312,0,0,1,5.725-3.8c.27-.129.539-.262.809-.393a20.782,20.782,0,0,0-4.432,1.412,12.86,12.86,0,0,0-4.175,2.812,8.717,8.717,0,0,0-2.441,7.531,47.3,47.3,0,0,0,1.2,5.57,13.094,13.094,0,0,0,1.616,3.837M69.6,136.416c-.906.253-1.721.491-2.542.706a8.207,8.207,0,0,1-1.1.206,1.734,1.734,0,0,0-1.3.938,20.61,20.61,0,0,1-2.04,2.781c-1.373,1.508-2.835,2.936-4.282,4.375a1.8,1.8,0,0,0-.58,1.267c-.1,2.409-.247,4.816-.311,7.225-.062,2.335-.047,4.673-.061,7.009a6.365,6.365,0,0,0,.06.634H69.642a1.656,1.656,0,0,0,.172-.384,42.476,42.476,0,0,0,.591-4.287c.082-1.816,0-3.643-.087-5.461-.122-2.54-.34-5.075-.466-7.614-.112-2.249-.153-4.5-.225-6.752-.007-.233-.02-.467-.028-.642M25.261,30.223a1.794,1.794,0,0,0-.423-1.739c-.747-.877-1.434-1.805-2.133-2.722a16.21,16.21,0,0,0-2.722-3.16,4.974,4.974,0,0,0-4.5-1.14,11.986,11.986,0,0,0-4.172,2.028,3.193,3.193,0,0,0-1.18,1.96,7.972,7.972,0,0,0,.261,3.733c.331,1.27.752,2.517,1.108,3.781a4.547,4.547,0,0,1-1.077,4.764,13.7,13.7,0,0,1-1.213,1.055,39.43,39.43,0,0,0-5.2,4.554,11.6,11.6,0,0,0-2.6,4.4,2.463,2.463,0,0,0,.9,2.783,3.9,3.9,0,0,0,2.007.74c2.265.405,4.539.769,6.815,1.1,1.014.15,2.043.2,3.158.3-.241-.535-.444-.968-.632-1.408A33.742,33.742,0,0,1,11.9,44.908a12.945,12.945,0,0,1-.234-4.081,9.573,9.573,0,0,1,3.663-6.486,17.021,17.021,0,0,1,5.639-2.858c1.4-.465,2.825-.833,4.294-1.26m87.745,107.539a3.763,3.763,0,0,1-2.531-1.647,4.468,4.468,0,0,1-.7-2.278,3.247,3.247,0,0,0-.546-1.9,8.958,8.958,0,0,0-2.657-2.308,3.613,3.613,0,0,0-2.143-.528,3.447,3.447,0,0,0-2.991,2.463,8.507,8.507,0,0,0-.1,4.679,2.7,2.7,0,0,0,1.489,1.959,6.967,6.967,0,0,1,1.59,1.206,1.721,1.721,0,0,1,.135,2.22c-.174.27-.363.532-.561.786a26.591,26.591,0,0,1-5.311,5.129,10.379,10.379,0,0,1-8.921,1.792c-.517-.124-1.024-.289-1.535-.435,2.128,1.67,4.315,3.223,5.884,5.462a28.864,28.864,0,0,1,3.421,7.182h8.643c-.193-.357-.337-.634-.49-.9a26.605,26.605,0,0,1-2.773-6.056,5.6,5.6,0,0,0-.481-1.1c-.331-.628-.628-.7-1.213-.277-.477.346-.906.759-1.385,1.1a9.44,9.44,0,0,1-1.495.938c-.912.422-1.491.007-1.389-1a5.115,5.115,0,0,1,.43-1.537,23.114,23.114,0,0,1,5.4-7.44,5.09,5.09,0,0,1,3.2-1.55c1.173-.063,2.354.023,3.531.054.287.007.572.056.759.076l2.737-6.083m128.033-76.97c.521.463.873.834,1.28,1.127a30.14,30.14,0,0,0,3.507,2.4,9.819,9.819,0,0,0,6.424.725,1.219,1.219,0,0,0,1.116-.945c.377-1.284.857-2.543,1.16-3.843a12.292,12.292,0,0,0,.057-5.968,6.427,6.427,0,0,0-6.186-4.832,13.191,13.191,0,0,0-5.795,1.12c-1.56.7-3.06,1.546-4.551,2.389a17.031,17.031,0,0,0-2.307,1.589c-.521.422-.491.706.013,1.112a27.267,27.267,0,0,1,3.491,3.418,2.257,2.257,0,0,0,.741.6,4.5,4.5,0,0,0,3.814.069,7.02,7.02,0,0,0,3.162-3.108c.514-.9.922-1.858,1.391-2.817l.475.09a1.578,1.578,0,0,1-.032.342,12.592,12.592,0,0,1-2.393,4.34,5.782,5.782,0,0,1-4.233,2.186c-.315.012-.63,0-1.133,0M76.664,103.886c-.263.529-.476.9-.639,1.294-.513,1.238-.993,2.489-1.516,3.722a1.075,1.075,0,0,0,.1,1.121c.716,1.1,1.391,2.23,2.086,3.345,2.086,3.346,4.229,6.657,6.248,10.043,3.09,5.184,5.861,10.545,8.627,15.907.466.9.938,1.8,1.422,2.735a9.647,9.647,0,0,1,4.033,1.209,3.921,3.921,0,0,0-.281-.845q-1.631-3.674-3.265-7.348c-1.41-3.186-2.74-6.409-4.235-9.555A154.727,154.727,0,0,0,80.4,109.729c-1.2-1.906-2.426-3.794-3.739-5.843M107,117.893c.033-.118.072-.235.1-.355.448-2.013.954-4.015,1.328-6.041a25.174,25.174,0,0,0,.031-8.554,44.5,44.5,0,0,0-2.944-10.089c-1.191-2.871-2.48-5.7-3.771-8.533-1.158-2.537-2.375-5.047-3.57-7.567-.088-.185-.21-.354-.316-.531A273.125,273.125,0,0,0,107,117.893M74.926,76.543c-.306.263-.548.476-.8.683s-.507.4-.75.607a5.384,5.384,0,0,0-.762.712A.846.846,0,0,0,73.189,80,53.434,53.434,0,0,1,83.1,82.375a28.147,28.147,0,0,1,7.731,3.9c2.151,1.617,4.161,3.384,4.9,6.171a.933.933,0,0,0,.206-.135,26.176,26.176,0,0,0,2.776-4.04,1.617,1.617,0,0,0,.129-1.153c-.274-1.611-.563-3.219-.829-4.831a.991.991,0,0,0-.7-.858,40.065,40.065,0,0,0-6.593-1.779c-2.837-.566-5.691-1.043-8.53-1.6-2.444-.478-4.876-1.014-7.257-1.513m75.026,83.734.1.043c.131-.25.273-.494.39-.75,2.266-4.98,4.51-9.971,6.464-15.083,1.11-2.905,2.111-5.851,3.173-8.775,2.162-5.952,4.528-11.822,7.166-17.578,1.039-2.266,2.22-4.467,3.323-6.705a4.759,4.759,0,0,1,3.963-2.776,21.873,21.873,0,0,1,2.563-.149.767.767,0,0,0,.879-.634,4.287,4.287,0,0,0,.121-1.5,27.641,27.641,0,0,0-1.886-5.885,2.907,2.907,0,0,0-3.5-1.743,4.787,4.787,0,0,0-2.457,1.461,14.456,14.456,0,0,0-2.98,5.379.834.834,0,0,0,.22.934,4.444,4.444,0,0,1,1.195,3.312,11.706,11.706,0,0,1-.749,3.2c-1.294,4.012-2.957,7.881-4.54,11.783-1.8,4.448-3.617,8.894-5.306,13.386-2.473,6.575-4.839,13.191-7.255,19.789-.282.769-.591,1.528-.887,2.292M99.7,91.686a3.713,3.713,0,0,0-.212.485c-.378,1.643-.821,3.276-1.1,4.937a16.9,16.9,0,0,0-.292,3.912c.144,2.1.468,4.2.8,6.287a63.186,63.186,0,0,0,3.931,13.891,39.692,39.692,0,0,1,2.218,6.112c.014.065.1.114.132.15.46-2.467.926-4.932,1.37-7.4a2.25,2.25,0,0,0-.036-.952c-.97-3.623-2.012-7.228-2.931-10.864-1.051-4.155-2.005-8.335-2.989-12.506-.3-1.289-.569-2.587-.89-4.05M135.189,129.5c-.349,0-.7.028-1.047-.007a.772.772,0,0,0-.915.584c-.309.913-.656,1.815-.947,2.733a2.661,2.661,0,0,0-.017,1.646,5.426,5.426,0,0,0,2.6,3.047,18.591,18.591,0,0,0,5.579,1.99,9.408,9.408,0,0,0,3.745.154,6.353,6.353,0,0,0,3.763-1.994,1.136,1.136,0,0,0,.237-1.384,7.336,7.336,0,0,0-1.54-2.144,15.615,15.615,0,0,0-11.462-4.624m-22.853,22.335a9.988,9.988,0,0,0,6.475-4.2,14.263,14.263,0,0,0,2.544-7.174c.127-1.417-.464-2.117-1.979-2.231A8.464,8.464,0,0,1,115.85,137c-.254-.142-.5-.3-.807-.485-.3.341-.6.644-.846.983a24.254,24.254,0,0,0-2.748,5.345,4.121,4.121,0,0,0-.209,2.619c.466,2.079.736,4.2,1.1,6.378m71.5,9.726c.074-.118.117-.185.157-.254,4.5-7.781,9.024-15.544,13.479-23.348,5.372-9.411,10.83-18.774,15.852-28.381.318-.609.613-1.23.918-1.845-11.3,17.84-22.41,35.787-33.567,53.828ZM98.006,144.924c-.307-.229-.543-.391-.763-.571a6.357,6.357,0,0,0-3.405-1.509c-.981-.1-1.973-.1-2.96-.118a4.913,4.913,0,0,0-4.551,3.462c-.188.539-.133.653.342,1.017.106.081.217.158.329.23a9.753,9.753,0,0,0,11.359-.5c1.36-1.081,2.623-2.29,3.872-3.5a16.011,16.011,0,0,0,1.68-2.048,1.156,1.156,0,0,0-.168-1.722,3.322,3.322,0,0,0-.757-.589,4.733,4.733,0,0,1-2.144-1.889c-2.033,2.2-2.651,4.843-2.835,7.739m-41.939,2.944-.162-.124c-.7.735-1.375,1.494-2.1,2.2q-3.309,3.227-6.652,6.42a1.2,1.2,0,0,0-.379.92c-.027,1.1-.1,2.19-.148,3.285-.014.313,0,.627,0,.963h9.943c-.168-4.593-.334-9.129-.5-13.665m55.528,4.208c-.114-1.025-.182-1.956-.326-2.875-.207-1.321-.464-2.634-.709-3.949a.833.833,0,0,0-.843-.8c-.908-.038-1.813-.142-2.72-.166a5.2,5.2,0,0,0-3.843,1.547,24.6,24.6,0,0,0-4.439,5.685,20.725,20.725,0,0,0-1.077,2.5.548.548,0,0,0,.2.759,5.6,5.6,0,0,0,.657-.366c.713-.522,1.42-1.053,2.116-1.6a1.986,1.986,0,0,1,1.695-.454,23.921,23.921,0,0,0,6.958.137c.739-.089,1.469-.262,2.331-.42m-6.96-23.71c-.233-.849-.382-1.591-.641-2.292-.64-1.734-1.33-3.451-2-5.173a58.682,58.682,0,0,1-3.2-10.693c-.439-2.394-.706-4.82-1.13-7.218a17.461,17.461,0,0,1,.159-6.464c.387-1.97.915-3.913,1.4-5.863.189-.766.19-.968-.1-1.451-1.082,1.415-2.192,2.855-3.284,4.309a1.049,1.049,0,0,0-.183.587,37.626,37.626,0,0,0-.081,4.571c.194,1.7.191,3.422.37,5.125a55.208,55.208,0,0,0,1.468,7.812q1.954,7.716,3.881,15.439c.2.8.385,1.6.607,2.524a4.59,4.59,0,0,1,2.742-1.213m33.522-25.127c0,.345-.02.692,0,1.036q.229,3.281.475,6.561c.214,2.907.441,5.813.645,8.721.178,2.535.329,5.071.5,7.607.049.744.111,1.486.169,2.26l.732.2c.038-.223.077-.38.089-.538.207-2.746.5-5.49.591-8.24a43.5,43.5,0,0,0-.435-9.3,29.483,29.483,0,0,0-2.764-8.311M71.465,61.028a3,3,0,0,0-1.243-1.136c-1.888-1.008-4.3-.967-5.435,1.638a13.688,13.688,0,0,0-.883,6.225c.232-.179.365-.292.509-.39a19.2,19.2,0,0,1,1.665-1.1,1.794,1.794,0,0,0,.728-.687,28.992,28.992,0,0,1,1.787-2.664,4.41,4.41,0,0,1,2.872-1.884m-4.159,5c1.793.4,2.472,1.957,3.527,3.076a5.637,5.637,0,0,0,2.544-2.434,2.538,2.538,0,0,0,.068-2.524c-.348-.664-.727-1.312-1.1-1.965a.775.775,0,0,0-.87-.441,3.044,3.044,0,0,0-1.1.421,11.723,11.723,0,0,0-3.071,3.868m74,91.4a2.394,2.394,0,0,0,.274-.363c.817-1.659,1.656-3.308,2.421-4.992a7.171,7.171,0,0,0,.468-1.849c.174-1.109.278-2.229.426-3.342.209-1.579.43-3.155.652-4.777-.115.066-.209.088-.247.147a18,18,0,0,0-2.465,5.031c-.584,2.173-1.047,4.378-1.606,6.558a13.316,13.316,0,0,0-.063,3.436c0,.038.067.076.139.152M68.8,128.471a17.62,17.62,0,0,0,1.554-3.587,3.007,3.007,0,0,0-.837-3.011,8.256,8.256,0,0,0-4.194-2.269,1.119,1.119,0,0,0-.042.307,11.565,11.565,0,0,0,1.359,4.415,7.062,7.062,0,0,1,1.224,3.8l.935.342M110.13,131.8c.125.9.23,1.716.35,2.527a3.321,3.321,0,0,0,1.8,2.517,1.292,1.292,0,0,0,1.87-.376c.088-.1.218-.177.273-.291a1.089,1.089,0,0,0,.179-.575,11.033,11.033,0,0,1,.321-4.126,2.959,2.959,0,0,0,0-.516,14.345,14.345,0,0,0-4.794.841m-2.6-2.45c.055-.646.1-1.2.15-1.76.146-1.7.247-3.414.449-5.112.256-2.15.612-4.288.889-6.436.178-1.377.322-2.761.42-4.146.062-.877.011-1.761.011-2.718-.246,1.506-.412,2.941-.724,4.344-.968,4.363-2.1,8.691-2.7,13.129-.085.629-.173,1.257-.257,1.865l1.76.835m39.445,4.055c.086-.335.155-.561.2-.791,1.07-5.329,2.114-10.664,3.217-15.987a11.972,11.972,0,0,0-.213-4.552,1.718,1.718,0,0,0-.214.592c-.776,4.131-1.536,8.265-2.329,12.394q-.673,3.511-1.44,7a.8.8,0,0,0,.369,1.014,4.516,4.516,0,0,1,.409.328M67.788,128.72a6.509,6.509,0,0,1-.224.683,8.975,8.975,0,0,1-2.346,3.5,7.066,7.066,0,0,1-3.37,1.416c-.965.162-1.945.237-2.918.35,1.409.162,2.813.256,4.219.31a19.367,19.367,0,0,0,2.471-.018A2.558,2.558,0,0,0,68,133.328a6.81,6.81,0,0,0-.215-4.608m81,7.07a96.583,96.583,0,0,0,1.607-15.722c-.336,1.238-.606,2.486-.85,3.739-.638,3.286-1.258,6.576-1.907,9.86a.778.778,0,0,0,.158.729c.316.394.589.823.991,1.4m-11.978,25.8c.551,0,.953-.023,1.35.006a.833.833,0,0,0,.855-.445c.394-.637.812-1.261,1.247-1.87a1.709,1.709,0,0,0,.315-1.13c-.067-1.415-.119-2.831-.184-4.246,0-.054-.085-.1-.169-.2l-3.413,7.886M103.937,34.429a4.974,4.974,0,0,0-2.554-.061,2.428,2.428,0,0,0-2.431,2.053,16.709,16.709,0,0,0-.234,2.22c-.011.175.138.359.214.539.171-.091.4-.138.5-.279a19.577,19.577,0,0,1,3.439-3.564c.343-.285.679-.579,1.063-.908M147.748,140c-.2.166-.4.349-.614.494a2.094,2.094,0,0,0-.935,1.659c-.186,1.672-.478,3.331-.717,5-.041.288-.038.582-.055.873l.172.014A49.939,49.939,0,0,0,147.748,140m-90.627,6.908c-.379.426-.451,2.5-.238,3.947q.119-1.974.238-3.947M69.6,131a12.848,12.848,0,0,0,.184-2.9A2.991,2.991,0,0,0,69.6,131" transform="translate(-0.48 -0.48)" fill="#fff"/>
              <path id="Path_2" data-name="Path 2" d="M624.456,399.7a8.932,8.932,0,0,1,.593-4.264,23.362,23.362,0,0,1,3.471-6.235,100.641,100.641,0,0,0,6.881-10.111c.881-1.53,1.634-3.137,2.4-4.729a5.721,5.721,0,0,0,.4-3.3,10.69,10.69,0,0,1,.086-3.683,4.108,4.108,0,0,1,3.038-3.313,11.429,11.429,0,0,1,4.94-.054,214.056,214.056,0,0,1,21.562,4.824,25.53,25.53,0,0,0,5.84,1.042,10.311,10.311,0,0,0,2.389-.206c.985-.212,1.15-.747.6-1.589s-1.137-1.628-1.649-2.476a6.774,6.774,0,0,1-.617-1.475,2.864,2.864,0,0,1,1.605-3.618,20.743,20.743,0,0,1,2.987-1.179c1.243-.414,2.5-.781,3.775-1.1a5.057,5.057,0,0,1,1.6-.078,2.735,2.735,0,0,1,2.149,1.387,5.444,5.444,0,0,1,.794,2.344,10.363,10.363,0,0,1-1.238,6.291,2.72,2.72,0,0,0-.394,1.529,5.694,5.694,0,0,1-.375,2.524,1.042,1.042,0,0,0,.12.736,28.892,28.892,0,0,1,2.184,5.868,18.284,18.284,0,0,1,.313,6.081,2.741,2.741,0,0,1-2.9,2.566c-.587.033-1.174.086-1.762.09a4.294,4.294,0,0,0-1.83.555,64.192,64.192,0,0,0-7.319,4.213c-3.552,2.317-7.074,4.68-10.6,7.034a2.036,2.036,0,0,1-1.192.374q-18.538-.015-37.076-.009c-.236,0-.473-.024-.773-.041m.636-.632c.207.013.339.029.47.029q15.88,0,31.76.008a1.29,1.29,0,0,0,.937-.358c1.961-1.788,4.005-3.492,5.883-5.364,2.545-2.538,5-5.165,7.425-7.821a57.963,57.963,0,0,0,5.554-7.088,15.776,15.776,0,0,0,2.536-6.375,4.673,4.673,0,0,0-1.414-4.466,6.221,6.221,0,0,1-.737-.744,20.148,20.148,0,0,1-1.313-1.822,1.123,1.123,0,0,1-.2-1.19c.408-.045.5.236.642.5a9.06,9.06,0,0,0,.811,1.379,16.508,16.508,0,0,0,1.366,1.474,5.087,5.087,0,0,1,1.582,3.988,13.759,13.759,0,0,1-1.072,4.6,26.951,26.951,0,0,1-3.749,5.989,102.068,102.068,0,0,1-9.086,10.211c-2.3,2.287-4.729,4.446-7.1,6.665a2.394,2.394,0,0,0-.259.357,1.345,1.345,0,0,0,1.482-.46c2.9-3.059,5.842-6.072,8.714-9.154,1.827-1.96,3.592-3.981,5.317-6.033a47.539,47.539,0,0,0,6.532-10.3c.539-1.137,1.051-2.286,1.594-3.469l.479.187a.66.66,0,0,1,.012.207c-.073.2-.156.4-.237.6a52.988,52.988,0,0,1-4.759,9.029,55.374,55.374,0,0,1-5.565,7.078q-3.807,4.15-7.643,8.273c-1.154,1.236-2.359,2.424-3.539,3.636-.1.106-.2.223-.38.435a3.121,3.121,0,0,0,2.037-.269c2.03-1.405,4.057-2.82,6.14-4.146q4.955-3.156,9.984-6.2a9.668,9.668,0,0,1,5.46-1.633c1.578.057,2.318-.724,2.571-2.3a13.621,13.621,0,0,0-.25-4.948,24.571,24.571,0,0,0-2.674-7.023,5.454,5.454,0,0,0,.636-3.046,4.49,4.49,0,0,1,.305-1.39c.314-.853.759-1.662,1.025-2.527a7.7,7.7,0,0,0-.007-4.752,2.63,2.63,0,0,0-3.18-2.044,1.728,1.728,0,0,0-.313.067c-1.258.375-2.525.722-3.77,1.137a20.993,20.993,0,0,0-2.689,1.064,2.28,2.28,0,0,0-1.235,3.329,26.052,26.052,0,0,0,1.629,2.764,9.885,9.885,0,0,1,.654,1.009,1.371,1.371,0,0,1-.817,2.021,5.406,5.406,0,0,1-1.4.312,18.512,18.512,0,0,1-6.2-.675c-2.447-.6-4.878-1.266-7.321-1.884-5.223-1.321-10.476-2.5-15.8-3.329a9.831,9.831,0,0,0-4.383.093,3.532,3.532,0,0,0-2.613,2.959,11.436,11.436,0,0,0-.048,3.44,6.511,6.511,0,0,1-.167,2.7,25.235,25.235,0,0,1-2.421,5.158A111.405,111.405,0,0,1,629,389.681a21.156,21.156,0,0,0-3.674,7.108,5.132,5.132,0,0,0-.239,2.276" transform="translate(-414.805 -237.986)" fill="#fff"/>
              <path id="Path_3" data-name="Path 3" d="M413.481,38.629l-.2-.53c.218-.1.4-.2.589-.273.72-.291,1.46-.538,2.159-.872a5.188,5.188,0,0,0,3.033-4.837,7.079,7.079,0,0,0-1.5-4.491,15.586,15.586,0,0,0-2.74-2.934c-.224-.186-.435-.388-.694-.619l.324-.434c.092.013.157,0,.192.03a16.2,16.2,0,0,1,3.989,4.378,7.5,7.5,0,0,1,.856,5.733,5.506,5.506,0,0,1-2.777,3.585,11.912,11.912,0,0,1-3.227,1.264" transform="translate(-274.609 -15.86)" fill="#fff"/>
            </g>
          </g>
        </g>
      </g>
    </g>
  </g>
</svg>
