<svg xmlns="http://www.w3.org/2000/svg" viewBox="0 0 352.56 835.83"><defs><style>.cls-1{stroke:#7b7b7b;stroke-miterlimit:10;stroke-width:2px;}</style></defs><g id="Layer_2" data-name="Layer 2"><g id="Layer_5" data-name="Layer 5"><path class="cls-1" d="M20.72,354.05s12.89-11.37,36.78-13.37c0,0,7.25-.38,10.25-1.5a4.24,4.24,0,0,1,2.5-.32,7.19,7.19,0,0,1,2.25.94c3.21,2.26,10.36.62,14.74,4.54,0,0,.36.31,4.48,7.75h0Z"/><path class="cls-1" d="M66.64,342.69s-18.1,1.37-30.37,4.22-16.09,6.92-16.09,8.35,1.07,5.24,12.75,5.12,18.38-.55,18.38-.55A47.71,47.71,0,0,0,66.64,342.69Z"/><path class="cls-1" d="M251,462.94A71.49,71.49,0,0,0,247.88,489c1.1,13.93,11.42,68.76,14.41,85.16s16.73,42.37,30.29,43.64,26.56,1.26,31.41-25-1.48-30.57-2-49.46-4.28-28.07,8.83-29.91,14.22-9.32,14.88-14.59-.22-15.8,3.73-22.07,1.1-21.94,1.1-27.73A83.14,83.14,0,0,0,348,428.32c-1.88-6.81-1.63-13-1.13-21s-1.89-13-4.4-18.62-4.66-14.71-4.66-20.62S329,332.46,325,320s-14-60.11-17.84-82.73-7.54-47.3-5.49-58.72,12.42-24.94,17.48-46.33,6.53-49-11.65-87.25-23.81-43.2-23.81-43.2H208.81s3.38,73,19.14,96.68S262.09,141,274.51,152.6s16,13.52,21.25,45.53,15.67,97.08,23.6,123.42,9.43,30.59,10.94,39.12.67,16.43,3.41,23.45,7.31,14.41,7.43,20.62-3.05,14.64-1.29,21.43,3.63,10.19,3.63,17-.24,12.67.47,19,.23,12.29-1.88,15.68-2.81,10.9-3.28,17.45-3.51,9.84-8.66,11.13-17,5.58-17.49,13,3.81,45,2.6,52.64-5.72,19.92-10.57,22.69c0,0-3.44-5.93.45-20.44s17-67.39,20.45-86.32a207.24,207.24,0,0,0,3.67-40.55c-.05-5-.28-9.17-.48-12-4.26,5.5-17.47,21.07-40.68,27.2A75.64,75.64,0,0,1,251,462.94Z"/><path class="cls-1" d="M290.23,173.35c-16.4-89-62-171.19-62-171.19l9.11-.46s64.7,137.1,63.79,189.08"/><path class="cls-1" d="M98.4,378.56s7.91-4.5.78-11.35S81.9,341.85,77.06,327.69s-24.42-49.19-31.15-57.1-18.93-35.25-23.16-53-9-33.87-12.14-44-15.52-36.4-6.21-60.11S25.57,52.76,64.8,23.69,130.64,1.78,130.64,1.78l7-.1s-3.38,39.23-28.78,65.47-44.59,46.85-54.47,66-30.19,38.09-30.19,38.09-3.39,37.82,9,64.63,25.13,45.72,33.45,59.26S91.06,356.11,101.91,364s7,13.77,1.15,18.35S98.4,378.56,98.4,378.56Z"/><path class="cls-1" d="M66.64,354.05s-36.36,35.83-35.92,59.79,12.75,85.45,22.42,112.93,17.63,47.47,25.6,50.05S96.2,578.24,93,523.92c0,0,.33-13.72,3.39-43.88s7.4-67.87,4.73-85-5.19-21.82-5.19-21.82L75.24,342.69s-5-5.64-8.6,0Z"/><path class="cls-1" d="M83.66,553.35s2.53-11.24,1.69-28.11-.16-20.44.17-25.5a97.74,97.74,0,0,0-.93-17.24c-.76-6.42-1.27-10.56,4.82-23.63s6.6-17.31,9-20.84,16.91-15.38,6.08-26.71-2-18.43-6.42-23.5-7.15-4.77-8.56-4.51,1.72,1.92,4.56,1.35a.89.89,0,0,1,.8.2L97.15,387a.44.44,0,0,1-.15.75c-1.67.6-6,2-9.34,1.38-4.22-.74-8.11-4.49-6-7.78s5.9-4.55,9.45-4.49,10.92,1.68,13.2,8.05,1.34,10.92,1.41,13.54,2.55,9.26,8,14.59,4,14.5-1.31,20-6.34,6.47-7.27,8.24-7.11,16.93-9.66,22.57-3.9,12-2.6,25.58,3.6,80.78-4.15,86.41"/><path class="cls-1" d="M196,425.17s15.08,51.57,38.36,51.47"/><path class="cls-1" d="M226,476.41a41.37,41.37,0,0,1,8.39.23c3.24.61,4.87-.81,5.78-5s-2.64-7.1-5.48-12.37-12-18.16-17-22.32S196,425.17,196,425.17"/><path class="cls-1" d="M102.27,544.84s-2.64.18-3.65-1.49a3.93,3.93,0,0,1-.79,3.39c-1.33,1.72-2.41,2.21-4.52,1.33,0,0,1.57,1.66.79,3.33a6.39,6.39,0,0,1-5,3.29s2.9,1.86,2.85,3.19a3.36,3.36,0,0,1-3.63,3,2.81,2.81,0,0,1,2,2.85c0,2.3-2.65,2.5-4.07,2.5a3.9,3.9,0,0,1,3.14,2.7c.78,2.45-3.49,2.55-3.49,2.55s2.9.19,2.7,2.3-5.74,2.75-5.74,2.75,5.94.44,6,2.16-.59,3.24-3,3.39c0,0,2.91.88,3.17,2.69s-1.23,2.49-3.21,2.53c0,0,2.7,1.1,3,2.74s-2.24,2.58-3.29,2.62c0,0,4.51.76,4.64,2.91s-1.6,2.61-3.12,2.69c0,0,4.8,1.1,4.42,3.25s-4.3,2.45-4.3,2.45,3.76.21,4.05,1.64,0,2.32-3,3.16c0,0,4.12.21,4.33,1.82s-1,2.19-2.94,2.27c0,0,3,.85,3.88,2.91s-2,2.66-2,2.66,3.29.5,3.46,2.19-2,2.45-2,2.45,2.31-.05,2.73,1.18.62,2.31-3.13,3.41c0,0,3.17.59,3.76,2s-1.82,2-3.76,1.78c0,0,4.52.5,4.6,1.89s-1.51,2.19-3.5,2.24c0,0,3.67.29,4.22,1.43s-.42,2.87-4.47,3.08c0,0,4.68,0,5.65,2.23s-1.43,4.09-5.18,4c0,0,5.81.67,6.4,2.74s-1.18,3.62-3.33,3.54c0,0,3.46.12,3.71,1.81s-3.54,2-3.54,2,4.26,0,4.3,1.6-1.94,3.25-3.62,3.29c0,0,4.59.13,5.1,2s-1,3.66-6.45,3.88c0,0,6.57.42,7.63,3.58s.76,5.27-1.18,6.28c0,0,2.82,1.05,3.29,3.67a5,5,0,0,1-3.21,5.61s4.77.54,4.85,2.53-.46,2.78-1.73,3.5c0,0,3.08,1.09,3.08,2.74s4.54,11.14,4.54,11.14"/><path class="cls-1" d="M225.67,596.61l2.5,49.58c.9,22.56,6.62,127.5,6,138.32s-9,17.14-19.54,15.34-11.13-12.63-8.42-26.76,9.92-56.83,14.73-102.54,4.82-86.3,5.7-105.84-4.74-57.52-4.33-71.17-2.75-16.76-2.75-16.76l-20.64,25.93-94.49,39.92s-13.93,11.19-11.11,37.85,8.34,47.93,11.11,66.36,5.62,61.25,22.06,100.38,32.9,68.9,57.85,81.1,48.49,6.52,57.85-10.78,6.8-32.89,3.68-65.22-9.07-94.42-10.49-124.48-2.55-43.38-1.13-55-2-22.41-2-30.2-.68-47.95.12-54.61,3.2-14.25,1.2-22.46-6.28-16.64-6.94-32.53,4.14-23.49-1.27-35.9-17.8-29.21-15.2-50,10-39,10.4-49.83-2-29.61-14-45.82S182,220.85,180,198.24s-4.6-39.62,1.4-54.23,11-18.27,11-18.27c31.24-33.25,40.53-124,40.53-124H130.64S132.74,6.6,148,44.69s17.05,79.62,17.05,79.62,2.14,14.95,4.27,27.76.61,40.88,5.19,59.49,30.51,52.47,36.58,66.81-6.74,60.95-6.74,60.95c-3.94,17.53-.59,31.71,5.32,44.91s9.66,22.46,9.85,31.12S217.62,437,217.62,437l-.5,4.21"/><path class="cls-1" d="M195.92,427.45s18.81,10,26,18.27,4.14,30.56,3.78,32.72-3.06,4.49-3.06,6.65-3,6.29-4.13,8.09.36,6.29-2.7,11.68-8.27,4.31-13.35,7.37-17,12-19.54,15.64-6.65,5-10.43,5.39-15.45,4.85-18.87,6.65-4,4.13-7.73,3.24-4.31-.72-7.91-.12-17.25-1.32-22.11-.3-5.39-.84-7.19-1.2-3.59,2.87-5.39,0,2.34-9.53,10.25-13.3,12.4-10.07,23.9-17.8,31.64-12.4,47.28-19.05,13.84-13.12,13.84-18.15-10.25-19.78-8.81-26.43-2.33-17.3-2.33-17.3Z"/><path class="cls-1" d="M68,428.16s3.27-1.14,7.23-2.76,9.46-2.08,13.08-3.63,9.72-4.8,15.23-7.19,8.89-4.29,17.36-1.4,11.66,4.58,18.74,2,13-6.38,22.91-8.17,11-5.38,17.84-4.09,11.36,5.18,14.45,7.18,5.08,3,5.38,4.78.3,3.29,1.4,3.39,1.49,1.29-1.3,1.89-4.68.7-4.78,2.79,2.49,4.68-2.1,6-10.76.1-14.44,0-11.46-4.48-17-4.88-17.64-4.69-23.12-4.19-11.36,6.18-17.24,8.47-9.37,3.29-16.94,1.7-11.36-3.69-14.35-2.5-5.68,2.5-7.77,2.5-3.09,1.29-5.78,2.59S56.69,432.18,68,428.16Z"/><path class="cls-1" d="M96.35,423a82.9,82.9,0,0,1,26.11-4.31c14.53,0,16.25-4.18,27.83-3.2S167,419,173.5,427.45"/><path class="cls-1" d="M160.82,417.41a62.73,62.73,0,0,1,34.74,5.53"/><path class="cls-1" d="M113.54,528.23a115.13,115.13,0,0,0,26.13-6.45c14.29-5.31,44.27-19,51.58-33.76"/><path class="cls-1" d="M147.47,518.66a25.69,25.69,0,0,0,6.15,21.25"/><path class="cls-1" d="M122.31,526.77S111.37,534.3,114.5,543"/><path class="cls-1" d="M128.76,525.24s-6.28,9.46-1.13,17.22"/><path class="cls-1" d="M139.67,521.78s-6.07,9.16,0,20.68"/><path class="cls-1" d="M154.84,515.37s0,12.32,6.87,21.12"/><path class="cls-1" d="M160.4,512.64s7.53,11.64,9.78,20.81"/><path class="cls-1" d="M169.46,508.13a29.6,29.6,0,0,1,11.39,22"/><path class="cls-1" d="M177.3,502.54a19,19,0,0,1,12,19.24"/><path class="cls-1" d="M185.18,496a21.73,21.73,0,0,1,9.56,5.75,22,22,0,0,1,5.82,11.69"/><path class="cls-1" d="M191.25,488a24.38,24.38,0,0,1,24.56,16.84"/><path class="cls-1" d="M198.06,480.29a28.86,28.86,0,0,1,23.62,7.7"/><path class="cls-1" d="M197.41,469a24.27,24.27,0,0,1,16.6-2.27,24,24,0,0,1,12.23,7.18"/><path class="cls-1" d="M194.4,462.42a27,27,0,0,1,11.36-9.55,27.57,27.57,0,0,1,19.58-.78"/><path class="cls-1" d="M189.63,448.79a19.83,19.83,0,0,1,9.28-10.85,19.41,19.41,0,0,1,11-2.08"/><path class="cls-1" d="M133.35,523.92a5.49,5.49,0,0,0-1.09-4.24,5.55,5.55,0,0,0-4.49-1.93"/><path class="cls-1" d="M122.31,522.34a3.38,3.38,0,0,1,2.63,1.19,3.31,3.31,0,0,1,.66,2.51"/><path class="cls-1" d="M143.42,520.33a10.4,10.4,0,0,0-3.63-5.58,10.29,10.29,0,0,0-5.51-2.11"/><path class="cls-1" d="M151.4,517a9.58,9.58,0,0,0-2.64-7.4,9.21,9.21,0,0,0-5.34-2.54"/><path class="cls-1" d="M160.4,512.64a8.52,8.52,0,0,0-6.48-10.1"/><path class="cls-1" d="M161.71,499.74a8.63,8.63,0,0,1,7.75,8.39"/><path class="cls-1" d="M173.67,495.61a7.23,7.23,0,0,1,2.75,2.74,7.32,7.32,0,0,1,.88,4.19"/><path class="cls-1" d="M297.24,403.94s1.83-1.62,0-4.86,0-4,0-4-14.14-4.75-20.51-5.61-19.86,1-21.48,0-2.91-2.92-2.91-7.23.43-7.67,3.56-9.29,6.37,1.19,8.31,0,6.48-9.93,13.6-8.85,15.55,4.64,20.24,12.2,5,10.36,8.58,12.63,11.33,4.21,12.3,5.82.22,2.27-4.75,1.73-7.77-.86-8.63-.54,2.16,1.73,4.85,2.59a43.37,43.37,0,0,1,15.22,9.93c5.83,5.83,18.71,15.79,4.15,30.81s-31.43,24.62-51.09,28.65-25.22-3.25-30-6.81-5-17.81,4.71-26.79S297.24,403.94,297.24,403.94Z"/><path class="cls-1" d="M302.14,415.54s-1.32,14.93-6.86,19.87S273,450.7,269.15,454.08s-8.55,7.58,1.08,7.94,22.64.61,39.5-12.4S304.79,433,302.14,415.54Z"/><path class="cls-1" d="M286.46,410.85a18.58,18.58,0,0,1,8.46,6.76c4.49,6.67,2.78,13.93,2.48,15.15"/><path class="cls-1" d="M281.91,413.84a21.89,21.89,0,0,1,8.75,7.87,22.33,22.33,0,0,1,3,15"/><path class="cls-1" d="M301.87,417.77c1.08-3.84-.13-7.75-2.93-9.76a8.39,8.39,0,0,0-6-1.32"/><path class="cls-1" d="M290.31,408.36A15.15,15.15,0,0,1,301,422.55"/><path class="cls-1" d="M276.62,417.35a22.17,22.17,0,0,1,9.17,6.95,22.68,22.68,0,0,1,4.52,15"/><path class="cls-1" d="M270.74,421.34a20.62,20.62,0,0,1,9.78,7.05,21.08,21.08,0,0,1,3.89,15"/><path class="cls-1" d="M280,446.4a22,22,0,0,0-5.2-14.19,21.44,21.44,0,0,0-10.26-6.52"/><path class="cls-1" d="M275.34,449.56A22.78,22.78,0,0,0,269.43,436a22.54,22.54,0,0,0-10.36-6.32"/><path class="cls-1" d="M271.13,452.52a27.26,27.26,0,0,0-17.69-18.19"/><path class="cls-1" d="M266.56,456.46A21.37,21.37,0,0,0,247,443.93"/><path class="cls-1" d="M264.64,460.24a13.34,13.34,0,0,0-8.77-6.26,11.74,11.74,0,0,0-9.82,2.56"/><path class="cls-1" d="M266,461.36a15.41,15.41,0,0,0-9.75-2,14.93,14.93,0,0,0-6.49,2.56"/><path class="cls-1" d="M267.21,461.7a9.62,9.62,0,0,0-6.86,1.12,9.36,9.36,0,0,0-3.56,4"/><path class="cls-1" d="M268.53,461.94a5,5,0,0,0-3.33,7"/><path class="cls-1" d="M314.15,400.15a14.77,14.77,0,0,0-7.8,4.06,15.38,15.38,0,0,0-4.21,11.33"/><path class="cls-1" d="M304.07,421.81a20.14,20.14,0,0,1,15.07-18.69"/><path class="cls-1" d="M307.52,427.34a20,20,0,0,1,16.09-20.75"/><path class="cls-1" d="M310,430.37a22.42,22.42,0,0,1,18.73-18.87"/><path class="cls-1" d="M312,432.76a22,22,0,0,1,10-12.76,21.32,21.32,0,0,1,11.64-2.62"/><path class="cls-1" d="M314.15,435.48a16.26,16.26,0,0,1,22.31-8.14"/><path class="cls-1" d="M315.68,438.36c.24-.38,3.45-5.08,9.14-5.08a11.07,11.07,0,0,1,7.48,3.1"/><path class="cls-1" d="M315.94,441.79a9.91,9.91,0,0,1,12.15-.81"/><path class="cls-1" d="M315.13,443.93a6.18,6.18,0,0,1,3.64.09,6.26,6.26,0,0,1,3.25,2.56"/><path class="cls-1" d="M312,447.68a3.79,3.79,0,0,1,2.92.12,3.87,3.87,0,0,1,2,2.85"/><path class="cls-1" d="M309,450.2a3.4,3.4,0,0,1,2.31.69,3.59,3.59,0,0,1,1.27,3"/><path class="cls-1" d="M305.12,452.92a3.09,3.09,0,0,1,2.07,1.17,3.31,3.31,0,0,1,.56,2.75"/><path class="cls-1" d="M273.41,462.12a4.53,4.53,0,0,0-1.13,7"/><path class="cls-1" d="M277.65,462.13a5.42,5.42,0,0,0,0,6"/><line class="cls-1" x1="282.66" y1="461.67" x2="283.48" y2="466.79"/><path class="cls-1" d="M301,455.41A3.15,3.15,0,0,1,303.2,457a3,3,0,0,1,.14,2.24"/><path class="cls-1" d="M296.75,457.59a4.21,4.21,0,0,1,1.45,1.6,4.31,4.31,0,0,1,.48,2.31"/><path class="cls-1" d="M291.82,459.54a4.29,4.29,0,0,1,1.42,4.2"/><line class="cls-1" x1="287.61" y1="460.75" x2="288.69" y2="465.13"/><path class="cls-1" d="M255.25,389.48a35,35,0,0,1,24.82-4.1,34.26,34.26,0,0,1,17.17,9.71"/><path class="cls-1" d="M66.64,342.69A57.69,57.69,0,0,1,60.12,352c-8.16,9.44-13.44,9.18-21.71,17.4-4.46,4.43-12,11.88-11.82,22,.09,6.56,3.37,11.65,5.52,14.39,0,0,5-15.64,20.51-29S74.14,358.21,66.64,342.69Z"/><path class="cls-1" d="M75.24,342.69S81.85,362,96.08,376.53c0,0,1.82,2.43,2.34-2.34s2.6-18-8-24.29S75.24,342.69,75.24,342.69Z"/><path class="cls-1" d="M18.05,199.18s-5-32.46,14.43-67.5S127.31,1.78,127.31,1.78h3.33s-58.55,80.06-72.26,98.7-32.27,48.71-34.22,70.8"/><path class="cls-1" d="M170.45,164.88S181,51.7,161.35,1h9.49s20.21,101.05,7.6,153.76"/><path class="cls-1" d="M33.84,401.5a15.64,15.64,0,0,1-6-7.78c-2.41-7.07,1.52-13.17,2-13.94"/><path class="cls-1" d="M29.83,379.78A10.07,10.07,0,0,0,30.51,391a9.94,9.94,0,0,0,7.12,3.4"/><path class="cls-1" d="M30.72,378.33a9.42,9.42,0,0,0,2.19,7.3c3.41,3.82,8.58,2.83,8.8,2.79"/><path class="cls-1" d="M34.48,373.47a9.34,9.34,0,0,0,2.93,8.27,9.33,9.33,0,0,0,8.38,1.71"/><path class="cls-1" d="M38.41,369.38a19.38,19.38,0,0,0,4.36,6.11,17.71,17.71,0,0,0,6.71,4.14"/><path class="cls-1" d="M42.67,365.62a18.31,18.31,0,0,1,10.51,10.62"/><path class="cls-1" d="M48.19,361.84a9.69,9.69,0,0,1,7.09,2.24,9.85,9.85,0,0,1,3.24,7.5"/></g></g></svg>