<svg xmlns="http://www.w3.org/2000/svg" viewBox="0 0 315.05 320.6"><defs><style>.cls-1{fill:#fff;}.cls-2{fill:#191919;}</style></defs><g id="Layer_2" data-name="Layer 2"><g id="Layer_2-2" data-name="Layer 2"><path class="cls-1" d="M55.28,40a51.27,51.27,0,0,1,28-9c17.58,0,32,5.17,40.53,14.57a23.6,23.6,0,0,1,6.35,13,21.9,21.9,0,0,0,8.57-5.48c6.47-7.52,6.28-17.78-.52-27.43-9-12.77-27.52-11.07-46.2-7.33C58.65,25,41.61,19.81,30.6,14.11,39.25,25.54,53.59,39.75,55.28,40Z"/><path class="cls-1" d="M250.83,113.68l-9.26,33.09h.29a19.91,19.91,0,0,1,2.26.13L254,111.55C252.88,112.37,251.81,113.08,250.83,113.68Z"/><path class="cls-1" d="M131.4,62.13l-2.59,12a13.89,13.89,0,0,0,3.32,12.27l3.94,4.33a13.88,13.88,0,0,0,20.52,0l3.94-4.33a13.86,13.86,0,0,0,3.31-12.27l-3.44-16a14.45,14.45,0,0,0-1-2.89,20.27,20.27,0,0,1-3.66,1.31l-.37.07c-.71.09-1.43.14-2.28.17h-.23c-.23,0-.47,0-.7,0a17.5,17.5,0,0,1-9.61-2.61A22,22,0,0,1,131.4,62.13Z"/><path class="cls-1" d="M123.46,122.92l-.14-.08a44,44,0,0,1-5.1-3.31c-1-.59-2-1.23-2.92-1.89-.25.94-.51,1.9-.77,2.86C110.92,134,106.82,149.28,90.06,154c-13,3.63-19.1,2.88-23.59,2.32a30.46,30.46,0,0,0-3.76-.32,12.06,12.06,0,0,0-5,1.07c-3.51,1.5-7,2.85-10,4-6.29,2.44-12.23,4.75-12.06,6.16.09.75,2,1.87,10.88,3,24,3,53.09-6.42,61.42-9.39a21.2,21.2,0,0,0,2.27-1c-2.47-11.45,3.22-22.8,8.45-30.33a73.5,73.5,0,0,1,5.07-6.49Z"/><path class="cls-1" d="M22.19,81.8c6.23,0,13.64-1.79,22.2-6.81C62.8,64.19,74.63,57.88,84.48,64.33a23.1,23.1,0,0,1,12.23-2.85h.45c8.49,0,17.82,3.48,27.73,10.32a33.77,33.77,0,0,1,.46-3.57,27.78,27.78,0,0,0,1.1-5.63c.88-9.39-5.87-18-18.06-23.07-19-7.87-46.88-5.34-63.56,14.73C34.08,67.19,23.36,74.17,13,75A22.63,22.63,0,0,1,0,72.33,30.77,30.77,0,0,0,22.19,81.8Z"/><path class="cls-1" d="M143,163.18l.55.14.28.08c1.15.31,2.18.64,3.17,1,1.43.5,2.61,1,3.72,1.48a43.07,43.07,0,0,1,15.2,11.6,42.91,42.91,0,0,1,21.41-16c.61-.21,1.21-.41,1.79-.58l1.36-.39c-2.6-6-5-12.1-7.1-18.07-1.15-3.25-2.3-6.76-3.52-10.7-.95.82-1.88,1.54-2.75,2.15-13,9-15.11,17.22-15.13,17.3l-2.47,11.94-4.11-11.49c-2.06-5.77-2-12.18-1.47-16.68a40.75,40.75,0,0,0-14.43,3.59,74.88,74.88,0,0,1,1.31,9.28,56,56,0,0,1-.6,14.7c.56.1,1.13.23,1.71.36C142.31,163,142.67,163.08,143,163.18Z"/><path class="cls-1" d="M91.23,14.69c6.87-1.38,15-2.78,22.76-2.78,12.81,0,21.72,3.8,27.22,11.62,8.32,11.82,6.46,21.41,3.34,27.46,5.35,3.29,11.48,1.65,13.4.73,4-1.93,10.63-6.71,9.56-17C166.24,22.48,161,6.27,129.73,6.27c-3.64,0-11.59.47-18,.84-3.49.21-6.5.39-7.75.42C99.81,7.64,86.66,6.47,78.32,0c.78,1.57,1.52,3.35,2.29,5.19C82.2,9,83.84,12.93,86,15.56,88,15.28,89.66,15,91.23,14.69Z"/><path class="cls-1" d="M127.81,99.7c-3.25,1.83-5.94,5.1-8.44,10.28a51.33,51.33,0,0,0,11.21,1.19,55.2,55.2,0,0,0,5.89-.31c14.59-1.53,24.06-5.6,26-11.18a9.68,9.68,0,0,0-.8-8.89l-2.28,2.5a17.65,17.65,0,0,1-23.31,2.47A66.41,66.41,0,0,0,127.81,99.7Z"/><path class="cls-1" d="M154,249.64a.09.09,0,0,1-.18,0c-4-16.72-16-30.14-30.94-34a37.54,37.54,0,0,0-9.55-1.21c-19.78,0-38.43,14.65-44.89,35a.09.09,0,0,1-.18,0c-2-7.12-5.53-25.69,5.53-42.67C81.5,195,92,187.76,103.47,186.46a34.56,34.56,0,0,1,3.8-.21c11.06,0,19.28,5.33,22,7.08C143,202.24,149,217.67,151.59,229A98.39,98.39,0,0,1,154,249.64Z"/><polygon class="cls-2" points="151.98 253.85 151.97 253.81 151.97 253.81 151.97 253.82 151.98 253.85"/><path class="cls-1" d="M150.74,251.08h0l0-.14c-3.61-15.89-14.86-28.48-28.66-32.08a34.54,34.54,0,0,0-8.71-1.1A42,42,0,0,0,88,226.84a47,47,0,0,0-13.87,17.35,32.52,32.52,0,0,1,9.81,7.65c5.91,6.8,7.2,14.16,7.9,18.11a45.86,45.86,0,0,1-1.74,22.24c6.92-10.14,16.22-15,23.69-15a14.25,14.25,0,0,1,5.59,1.07c8.06,3.44,10.83,14.83,11.74,23.78a42.68,42.68,0,0,1-2.29,18.59A87.37,87.37,0,0,0,142,301.84c3.49-6.69,12.75-24.46,9.54-46.49l-.08-.54h0l-.12-.72,0-.16C151.13,253,150.94,252,150.74,251.08Z"/><path class="cls-1" d="M151.43,254.81h0l-.12-.72.12.72Z"/><path class="cls-1" d="M71,205a51.89,51.89,0,0,1,16.2-16.25c-23.83-6.42-48.9-.93-65.61,14.41S1.39,240,.61,248.27c1.84-6.21,5.81-15.78,13.09-17.66a13.19,13.19,0,0,1,3.24-.39A12.58,12.58,0,0,1,23.53,232a13.53,13.53,0,0,1,5.21,6.65c3.22,8,.67,17.11-.7,22a18.21,18.21,0,0,0-.75,3.27,24.14,24.14,0,0,0,2.09-3.64c3.43-6.67,9.83-19.07,21-21.54a27.06,27.06,0,0,1,12.66.32C62.24,230.17,63.05,217.2,71,205Z"/><path class="cls-1" d="M199,177.27c-.11-.5-.21-.92-.31-1.34a52.19,52.19,0,0,1-.58-13.25l-2.92.56-3.33.86a41.28,41.28,0,0,0-8,2.91,39.22,39.22,0,0,0-15.11,13l-.5.72a34.5,34.5,0,0,1,2.49,10l.31,2.62-1-2.45a33.29,33.29,0,0,0-2.76-5.42,32.86,32.86,0,0,0-2.55-3.52l-1.46-1.77a39.37,39.37,0,0,0-14.15-10.92c-1.25-.57-2.55-1.08-3.87-1.53a30.58,30.58,0,0,0-9.32-1.82,17,17,0,0,0-3.4.31c.21.59.4,1.16.56,1.75a35.67,35.67,0,0,1,1.2,8,38.49,38.49,0,0,1-2.85,14.27c28.9,19,26.23,63.29,26.19,63.73l0,.45a64.88,64.88,0,0,0,15.08-7.3c5.28-3.47,22.86-16.46,27.4-38.07,1.92-9.13,1.54-19.82-1.14-31.78Z"/><path class="cls-1" d="M199.33,177.23v0l-.13.07Z"/><path class="cls-1" d="M261.64,106.17l7.19,23.27,2.27-.67-7.54-24.44C262.92,105,262.28,105.58,261.64,106.17Z"/><path class="cls-1" d="M260.1,107.54q-1.19,1-2.37,2V133.8a16.62,16.62,0,0,1,2.37-1.45Z"/><path class="cls-1" d="M163.47,52.81c5.51-1.18,9.32-3.46,11.36-6.79,2.65-4.36,1.89-9.74,1.88-9.79l.69-.13a18.3,18.3,0,0,1-1.34,11.22c-2.83,5.75-8.61,8.25-11.68,9.21a17.06,17.06,0,0,0,4.54.6c5.1,0,12.1-2.19,15-8.34a13,13,0,0,0,1.2-4.26,42,42,0,0,1,.85-5C188.05,31,192.2,28,194.49,27l-.62,0a12.73,12.73,0,0,0-9.1,3.6l-.36.36-.2-.47c-.06-.12-5.42-12.15-19.35-13.57a37.39,37.39,0,0,1,6.4,17.39C172.29,44.23,167.23,50,163.47,52.81Z"/><path class="cls-1" d="M124.77,76.35c-12.39-9.09-23.61-12.62-33.33-10.48C84,67.5,79.33,71.92,73.89,77c-5.21,4.9-11.11,10.45-20.71,14.78a68.06,68.06,0,0,1-26.36,5.84,55.27,55.27,0,0,0,21.74,5.69c8.91.4,13.72-1.7,18.8-3.92C72.11,97.34,77,95.19,85.59,95a72.41,72.41,0,0,1,17.69,2c7.46,1.56,13.9,2.9,21.84-.84a30,30,0,0,0,6.74-4.4L129.34,89a17.71,17.71,0,0,1-2-2.67c-17-9.11-26.83-8-38.09-2.94l-.3-.63.81-.43C94,80,104,74.64,118.42,79.36c1,.34,2.11.64,3.15.92,1.23.34,2.5.68,3.74,1.12A17.39,17.39,0,0,1,124.77,76.35Z"/><path class="cls-1" d="M261,243.87c-.87,0-1.74-.05-2.61-.12l-3.53-.48c-.84-.17-1.68-.36-2.5-.59A55.84,55.84,0,0,0,258,288.91l.94.11c.68.05,1.35.07,2,.07s1.33,0,2-.07,1.38-.18,2.07-.28a64.36,64.36,0,0,0,5.67-46.39A32.31,32.31,0,0,1,261,243.87Z"/><path class="cls-1" d="M240.18,270.27l6.49-4.4c0-.49-.11-1-.15-1.47a59.7,59.7,0,0,1-.11-7.45L240,252.61l6.76-.16a59.68,59.68,0,0,1,2.35-10.84A33.7,33.7,0,0,1,236,232.29l-.91,5.06c-9.18,13.44-12.1,23.49-8.88,30.67,1.67,3.72,6.33,10,13.64,11.25a29.29,29.29,0,0,0,9,6.93l3.12,1.32q.85.3,1.74.54a60.13,60.13,0,0,1-6.28-17.62Zm-11.1-3.55c-2.18-4.87-.68-11.89,4.42-20.92l-1.16,6.4a32.47,32.47,0,0,0,4.12,22.53A18.29,18.29,0,0,1,229.08,266.72Z"/><path class="cls-1" d="M286,232.29a33.78,33.78,0,0,1-12.11,8.88c.51,1.9.92,3.85,1.25,5.82l.4,2.73c.12.91.2,1.82.28,2.74l6.34.15-6.1,4.14,0,2.31c0,1.43-.07,2.86-.18,4.28-.06.8-.15,1.56-.24,2.34l0,.27,6.37,4.32-7,.17c-.24,1.34-.51,2.64-.81,3.89l-.63,2.34a68,68,0,0,1-4.21,11.13c14.12-4.48,23.14-19.9,20.29-35.6Z"/><path class="cls-1" d="M278.29,176.92A132.92,132.92,0,0,1,287.23,189l.81-13.82h2.24c.36,0,1.63-.2,1.72-1.4.06-.72.1-1.45.15-2.29s.12-2,.21-3.39-1.29-1.58-3.12-1.76l-.23,0-1.43,0H268.93c2.46,2.61,4.85,5.26,7.09,7.89h0l2.28,2.71Z"/><path class="cls-1" d="M229.71,173.81c.09,1.2,1.36,1.38,1.75,1.4h2.21l.81,13.82a131.06,131.06,0,0,1,8.94-12.11h0l.24-.3,2.05-2.45h0c2.24-2.61,4.61-5.25,7.06-7.85H234.13l-1.43,0-.23,0c-1.83.18-3.22.41-3.12,1.76s.16,2.44.21,3.37S229.65,173.08,229.71,173.81Z"/><path class="cls-1" d="M264.27,134.77a13,13,0,0,0-4.64,22.41l.84.7a30.81,30.81,0,0,1,19.27-22.29l.26.65A28.9,28.9,0,0,0,263.09,160a12.73,12.73,0,0,0,7.4,2.37,13,13,0,0,0,12.93-11.54l2.5-22.43Z"/><path class="cls-1" d="M249.53,209.82c-5.82,8.86-.19,21.09,10.38,21.8.36,0,.71,0,1.07,0s.71,0,1.07,0c10.57-.71,16.2-12.94,10.38-21.8L261,192.36Z"/><path class="cls-1" d="M245.71,225.5a17.69,17.69,0,0,1-1.77-9.86c-.54,0-1.08-.07-1.63-.07a19,19,0,0,0-10.08,2.91,31.22,31.22,0,0,0,4.27,8.89,29.77,29.77,0,0,0,24,13l-1-5.49A16.75,16.75,0,0,1,245.71,225.5Z"/><path class="cls-1" d="M246.41,192.82a21,21,0,0,1,6.92,5.06l2.09-3.18,2.74-4.18,1.31-2L259.33,165c-3.94,4-14.09,14.63-21.13,25.66A34.52,34.52,0,0,1,246.41,192.82Z"/><path class="cls-1" d="M279.76,215.57c-.59,0-1.18,0-1.76.08a17.56,17.56,0,0,1-1.75,9.85,16.75,16.75,0,0,1-13.83,9.4l-1,5.49a29.74,29.74,0,0,0,24-13,31.36,31.36,0,0,0,4.28-8.91,18.6,18.6,0,0,0-10-2.89Z"/><path class="cls-1" d="M262.7,165.1l.15,24,.95,1.44,2.74,4.18,2,3a20.89,20.89,0,0,1,12.66-6.5,20.44,20.44,0,0,1,2.56-.54C276.73,179.7,266.67,169.11,262.7,165.1Z"/><path class="cls-1" d="M281.16,191.19a18.9,18.9,0,0,1,2.38-.16c.13,0,.26-.05.39-.06l-.21-.32A20.44,20.44,0,0,0,281.16,191.19Z"/><path class="cls-1" d="M283.65,191H284l0-.06c-.13,0-.26,0-.39.06Z"/><path class="cls-1" d="M314.71,169c-1.62-8.48-6.11-12.73-9.58-14.79a18.92,18.92,0,0,0-7.92-2.56,16.22,16.22,0,0,0-2.81-.25l-.82,0a17.44,17.44,0,0,0-4.36.87c-.27.07-.74.25-.74.25a27,27,0,0,0-2.88,1.25A15.72,15.72,0,0,1,276.36,164h3.86a20.34,20.34,0,0,0,6.82-1.22,45.11,45.11,0,0,1,12.49-2.45l.67,0a11.54,11.54,0,0,1,11.35,9.23.5.5,0,0,0,0,.12c2.05,10.73-6.66,23.75-21.82,32.93a54.27,54.27,0,0,0-5.34-10.8l-.21-.36-.06-.09c-.2,0-.39.06-.59.09a23.44,23.44,0,0,0-2.32.51,19.31,19.31,0,0,0-5.2,2.33,18.6,18.6,0,0,0-5.84,6l2,3,3.05,4.64a17.75,17.75,0,0,1,2.17,4.71A20.93,20.93,0,0,1,290,217.38a31.41,31.41,0,0,0,1-7.94,18.11,18.11,0,0,0-.42-3.71C307.4,195.84,317,181.24,314.71,169Z"/><path class="cls-1" d="M237.54,191.73c-3.86,6.24-6.63,12.52-6.63,17.71a31.73,31.73,0,0,0,1,8,20.62,20.62,0,0,1,2.94-2,21,21,0,0,1,9.68-2.71,17.84,17.84,0,0,1,2.18-4.72l4.9-7.47a18.93,18.93,0,0,0-10.6-8.42l-.53-.14a19.41,19.41,0,0,0-2.52-.18Z"/><path class="cls-1" d="M238,191.38h-.23l-.22.35H238a19.41,19.41,0,0,1,2.52.18,20.65,20.65,0,0,0-2.36-.52Z"/><path class="cls-1" d="M238.14,191.39l-.35-.07,0,.06h.38Z"/><path class="cls-1" d="M252.2,155.11a17.73,17.73,0,0,0-3.13-2.55l0,0a17.4,17.4,0,0,0-9.18-2.67c-8.1,0-16.53,5.67-19.47,7.85a43.87,43.87,0,0,1,6.38-.47c9.84,0,12.89,1.86,17.94,4.94l1.64,1h12.79v-1.89l-5.34-4.63C253.22,156.17,252.7,155.63,252.2,155.11Z"/><path class="cls-1" d="M194.42,96.53a32.8,32.8,0,0,0,.17-26.32c-3.85,4.77-10.42,7.59-17.71,7.59-.79,0-1.8,0-2.82-.1a36.46,36.46,0,0,1,6.86,3.07c6.09,3.34,10.31,7.69,12.53,12.92A22.56,22.56,0,0,1,194.42,96.53Z"/><path class="cls-1" d="M193.1,65.7a15.16,15.16,0,0,0,.76-1.75c.08-.22.16-.44.23-.67s.12-.39.17-.59c.13-.47.25-.94.34-1.44a21.3,21.3,0,0,0-1.3-11.46,24.18,24.18,0,0,0-4.11-6.9c-.11.72-.21,1.38-.28,2-1,9.09-8.45,14.43-16.35,15.68a22.63,22.63,0,0,1-6.62.08c-.39-.06-.79-.12-1.17-.2l2.51,11.69a25.81,25.81,0,0,0,9.6,1.89,19.76,19.76,0,0,0,13.4-4.7,13.13,13.13,0,0,0,1.86-2.09l.11-.16.23-.37.16-.31C192.67,66.37,193.1,65.7,193.1,65.7Z"/><path class="cls-2" d="M194.6,61.25c-.09.5-.21,1-.34,1.44C194.39,62.22,194.51,61.75,194.6,61.25Z"/><polygon class="cls-2" points="164.77 60.49 167.28 72.18 164.77 60.49 164.77 60.49"/><path class="cls-2" d="M192.47,66.77v0l-.23.37Z"/><path class="cls-2" d="M172.56,60.61a22.63,22.63,0,0,1-6.62.08A22.63,22.63,0,0,0,172.56,60.61Z"/><path class="cls-2" d="M194.09,63.28c-.07.23-.15.45-.23.67C193.94,63.73,194,63.51,194.09,63.28Z"/><path class="cls-2" d="M164.77,60.49h0c.38.08.78.14,1.17.2C165.55,60.63,165.15,60.57,164.77,60.49Z"/><path class="cls-2" d="M190.28,69.37a13.13,13.13,0,0,0,1.86-2.09l.11-.16-.11.16A13.13,13.13,0,0,1,190.28,69.37Z"/><path class="cls-2" d="M194.26,62.69c0,.2-.11.39-.17.59C194.15,63.08,194.21,62.89,194.26,62.69Z"/><path class="cls-2" d="M193.1,65.7h0a13.79,13.79,0,0,0,.76-1.75A15.16,15.16,0,0,1,193.1,65.7Z"/><path class="cls-1" d="M191.05,98.43l0-.1c-1.94-8.77-9.79-15.07-23.33-18.73a20.29,20.29,0,0,1-.73,3.06c11.42,3.3,18,13.5,15.32,23.87a20.3,20.3,0,0,1-5.39,9.52l-.53-.46a24.78,24.78,0,0,0,4.47-9.45,14.18,14.18,0,0,0-1.78-11.62c-2.76-4.26-7.84-7.39-13.63-8.42a13.64,13.64,0,0,1-1.17,1.72c2.16,3.3,3.82,7.18,1.78,13.09-3.15,9.08-18.14,12.17-29.15,13.71a33.58,33.58,0,0,1-4.47.29c-8.56,0-17.47-3-21.75-4.61,4,2.89,12.48,8.8,18.74,11.26a26.17,26.17,0,0,0,7.75,1.82l2.28.12-2.21.56a24.87,24.87,0,0,1-6.27.71c-1.06,0-2.21,0-3.59-.14l-.23.26c-5.62,6.18-18.64,20.53-12.68,40.26,2.16-5.67,14.41-34,42.46-34h.21c6.47-.3,12.42-3.84,15.14-9l.63.29a18,18,0,0,1-6.73,8.43,23,23,0,0,1-8.3,3.41c-.46,3.42-.88,9.56.78,15.09,1-2.77,4.54-10.35,16.35-18.54a43.36,43.36,0,0,0,12.33-13.92c2.34-4.18,4.92-10.56,4-17.2v0C191.2,99.23,191.13,98.83,191.05,98.43Z"/><path class="cls-1" d="M242.7,112.66h0a12,12,0,0,0,6.16-1.41c7.13-4.2,16.82-13.58,18.06-17.41a4.77,4.77,0,0,0-1.26-.13c-6.45,0-23.84,6.58-26.9,7.92-.92.41-2.42,1.16-4.16,2C228.78,106.6,220,111,216,111a14.7,14.7,0,0,1-5.48-1.09c-1.14-.44-9.58-3.69-15.37-5.76a33.34,33.34,0,0,1-3.75,12.92l6.44,1.63c7.73,2,15.73,4,18.09,4a6,6,0,0,0,.79,0c3.49-.42,8.71-3,13.3-5.28C236,114.46,239.85,112.66,242.7,112.66Z"/></g></g></svg>